<?xml version="1.0" encoding="utf-8"?>
<!-- Generator: Adobe Illustrator 22.1.0, SVG Export Plug-In . SVG Version: 6.00 Build 0)  -->
<svg version="1.1" id="Layer_1" xmlns="http://www.w3.org/2000/svg" xmlns:xlink="http://www.w3.org/1999/xlink" x="0px" y="0px"
	 viewBox="0 0 460.8 345.6" style="enable-background:new 0 0 460.8 345.6;" xml:space="preserve">
<style type="text/css">
	.st0{fill:#FFFFFF;}
	.st1{fill:none;stroke:#FFFFFF;stroke-width:0.8;stroke-linejoin:round;stroke-miterlimit:10;}
	.st2{font-family:'PTSerif-Regular';}
	.st3{font-size:10px;}
	.st4{opacity:0.5;fill:#EC407A;}
	.st5{fill:none;}
	.st6{opacity:0.5;fill:#BBDEFB;}
</style>
<line class="st1" x1="55.1" y1="321.4" x2="55.1" y2="324.4"/>
<text transform="matrix(1 0 0 1 51.9067 335.5014)" class="st0 st2 st3">0</text>
<line class="st1" x1="131.6" y1="321.4" x2="131.6" y2="324.4"/>
<text transform="matrix(1 0 0 1 125.27 335.5014)" class="st0 st2 st3">20</text>
<line class="st1" x1="208.2" y1="321.4" x2="208.2" y2="324.4"/>
<text transform="matrix(1 0 0 1 201.8125 335.5014)" class="st0 st2 st3">40</text>
<line class="st1" x1="284.7" y1="321.4" x2="284.7" y2="324.4"/>
<text transform="matrix(1 0 0 1 278.3555 335.5014)" class="st0 st2 st3">60</text>
<line class="st1" x1="361.3" y1="321.4" x2="361.3" y2="324.4"/>
<text transform="matrix(1 0 0 1 354.8984 335.5014)" class="st0 st2 st3">80</text>
<line class="st1" x1="437.8" y1="321.4" x2="437.8" y2="324.4"/>
<text transform="matrix(1 0 0 1 428.2617 335.5014)" class="st0 st2 st3">100</text>
<line class="st1" x1="36.9" y1="321.4" x2="33.9" y2="321.4"/>
<text transform="matrix(1 0 0 1 24.0044 325.2045)" class="st0 st2 st3">0</text>
<line class="st1" x1="36.9" y1="269.6" x2="33.9" y2="269.6"/>
<text transform="matrix(1 0 0 1 11.2856 273.3861)" class="st0 st2 st3">200</text>
<line class="st1" x1="36.9" y1="217.8" x2="33.9" y2="217.8"/>
<text transform="matrix(1 0 0 1 11.2856 221.5678)" class="st0 st2 st3">400</text>
<line class="st1" x1="36.9" y1="166" x2="33.9" y2="166"/>
<text transform="matrix(1 0 0 1 11.2856 169.7494)" class="st0 st2 st3">600</text>
<line class="st1" x1="36.9" y1="114.1" x2="33.9" y2="114.1"/>
<text transform="matrix(1 0 0 1 11.2856 117.9311)" class="st0 st2 st3">800</text>
<line class="st1" x1="36.9" y1="62.3" x2="33.9" y2="62.3"/>
<text transform="matrix(1 0 0 1 4.9263 66.1127)" class="st0 st2 st3">1000</text>
<rect x="55.1" y="54.8" class="st4" width="0.7" height="266.6"/>
<polyline class="st5" points="36.9,41.5 36.9,321.4 437.8,321.4 "/>
<rect x="55.8" y="247" class="st4" width="0.7" height="74.4"/>
<polyline class="st5" points="36.9,41.5 36.9,321.4 437.8,321.4 "/>
<rect x="56.5" y="218.5" class="st4" width="0.7" height="102.9"/>
<polyline class="st5" points="36.9,41.5 36.9,321.4 437.8,321.4 "/>
<rect x="57.3" y="233.1" class="st4" width="0.7" height="88.4"/>
<polyline class="st5" points="36.9,41.5 36.9,321.4 437.8,321.4 "/>
<rect x="58" y="220.9" class="st4" width="0.7" height="100.5"/>
<polyline class="st5" points="36.9,41.5 36.9,321.4 437.8,321.4 "/>
<rect x="58.7" y="218.8" class="st4" width="0.7" height="102.6"/>
<polyline class="st5" points="36.9,41.5 36.9,321.4 437.8,321.4 "/>
<rect x="59.5" y="210.8" class="st4" width="0.7" height="110.6"/>
<polyline class="st5" points="36.9,41.5 36.9,321.4 437.8,321.4 "/>
<rect x="60.2" y="212.3" class="st4" width="0.7" height="109.1"/>
<polyline class="st5" points="36.9,41.5 36.9,321.4 437.8,321.4 "/>
<rect x="60.9" y="215.4" class="st4" width="0.7" height="106"/>
<polyline class="st5" points="36.9,41.5 36.9,321.4 437.8,321.4 "/>
<rect x="61.6" y="201.7" class="st4" width="0.7" height="119.7"/>
<polyline class="st5" points="36.9,41.5 36.9,321.4 437.8,321.4 "/>
<rect x="62.4" y="207.7" class="st4" width="0.7" height="113.7"/>
<polyline class="st5" points="36.9,41.5 36.9,321.4 437.8,321.4 "/>
<rect x="63.1" y="212.8" class="st4" width="0.7" height="108.6"/>
<polyline class="st5" points="36.9,41.5 36.9,321.4 437.8,321.4 "/>
<rect x="63.8" y="203.8" class="st4" width="0.7" height="117.6"/>
<polyline class="st5" points="36.9,41.5 36.9,321.4 437.8,321.4 "/>
<rect x="64.6" y="205.1" class="st4" width="0.7" height="116.3"/>
<polyline class="st5" points="36.9,41.5 36.9,321.4 437.8,321.4 "/>
<rect x="65.3" y="204" class="st4" width="0.7" height="117.4"/>
<polyline class="st5" points="36.9,41.5 36.9,321.4 437.8,321.4 "/>
<rect x="66" y="203.5" class="st4" width="0.7" height="117.9"/>
<polyline class="st5" points="36.9,41.5 36.9,321.4 437.8,321.4 "/>
<rect x="66.7" y="203.3" class="st4" width="0.7" height="118.1"/>
<polyline class="st5" points="36.9,41.5 36.9,321.4 437.8,321.4 "/>
<rect x="67.5" y="216.7" class="st4" width="0.7" height="104.7"/>
<polyline class="st5" points="36.9,41.5 36.9,321.4 437.8,321.4 "/>
<rect x="68.2" y="202.7" class="st4" width="0.7" height="118.7"/>
<polyline class="st5" points="36.9,41.5 36.9,321.4 437.8,321.4 "/>
<rect x="68.9" y="207.4" class="st4" width="0.7" height="114"/>
<polyline class="st5" points="36.9,41.5 36.9,321.4 437.8,321.4 "/>
<rect x="69.7" y="204.8" class="st4" width="0.7" height="116.6"/>
<polyline class="st5" points="36.9,41.5 36.9,321.4 437.8,321.4 "/>
<rect x="70.4" y="223" class="st4" width="0.7" height="98.5"/>
<polyline class="st5" points="36.9,41.5 36.9,321.4 437.8,321.4 "/>
<rect x="71.1" y="217" class="st4" width="0.7" height="104.4"/>
<polyline class="st5" points="36.9,41.5 36.9,321.4 437.8,321.4 "/>
<rect x="71.9" y="219.6" class="st4" width="0.7" height="101.8"/>
<polyline class="st5" points="36.9,41.5 36.9,321.4 437.8,321.4 "/>
<rect x="72.6" y="223.7" class="st4" width="0.7" height="97.7"/>
<polyline class="st5" points="36.9,41.5 36.9,321.4 437.8,321.4 "/>
<rect x="73.3" y="226.1" class="st4" width="0.7" height="95.3"/>
<polyline class="st5" points="36.9,41.5 36.9,321.4 437.8,321.4 "/>
<rect x="74" y="218.8" class="st4" width="0.7" height="102.6"/>
<polyline class="st5" points="36.9,41.5 36.9,321.4 437.8,321.4 "/>
<rect x="74.8" y="228.7" class="st4" width="0.7" height="92.8"/>
<polyline class="st5" points="36.9,41.5 36.9,321.4 437.8,321.4 "/>
<rect x="75.5" y="235.4" class="st4" width="0.7" height="86"/>
<polyline class="st5" points="36.9,41.5 36.9,321.4 437.8,321.4 "/>
<rect x="76.2" y="244.7" class="st4" width="0.7" height="76.7"/>
<polyline class="st5" points="36.9,41.5 36.9,321.4 437.8,321.4 "/>
<rect x="77" y="246.8" class="st4" width="0.7" height="74.6"/>
<polyline class="st5" points="36.9,41.5 36.9,321.4 437.8,321.4 "/>
<rect x="77.7" y="242.9" class="st4" width="0.7" height="78.5"/>
<polyline class="st5" points="36.9,41.5 36.9,321.4 437.8,321.4 "/>
<rect x="78.4" y="255.3" class="st4" width="0.7" height="66.1"/>
<polyline class="st5" points="36.9,41.5 36.9,321.4 437.8,321.4 "/>
<rect x="79.1" y="251.2" class="st4" width="0.7" height="70.2"/>
<polyline class="st5" points="36.9,41.5 36.9,321.4 437.8,321.4 "/>
<rect x="79.9" y="250.9" class="st4" width="0.7" height="70.5"/>
<polyline class="st5" points="36.9,41.5 36.9,321.4 437.8,321.4 "/>
<rect x="80.6" y="264.9" class="st4" width="0.7" height="56.5"/>
<polyline class="st5" points="36.9,41.5 36.9,321.4 437.8,321.4 "/>
<rect x="81.3" y="260.8" class="st4" width="0.7" height="60.6"/>
<polyline class="st5" points="36.9,41.5 36.9,321.4 437.8,321.4 "/>
<rect x="82.1" y="260.5" class="st4" width="0.7" height="60.9"/>
<polyline class="st5" points="36.9,41.5 36.9,321.4 437.8,321.4 "/>
<rect x="82.8" y="261.8" class="st4" width="0.7" height="59.6"/>
<polyline class="st5" points="36.9,41.5 36.9,321.4 437.8,321.4 "/>
<rect x="83.5" y="257.4" class="st4" width="0.7" height="64"/>
<polyline class="st5" points="36.9,41.5 36.9,321.4 437.8,321.4 "/>
<rect x="84.2" y="263.4" class="st4" width="0.7" height="58"/>
<polyline class="st5" points="36.9,41.5 36.9,321.4 437.8,321.4 "/>
<rect x="85" y="266.2" class="st4" width="0.7" height="55.2"/>
<polyline class="st5" points="36.9,41.5 36.9,321.4 437.8,321.4 "/>
<rect x="85.7" y="276.3" class="st4" width="0.7" height="45.1"/>
<polyline class="st5" points="36.9,41.5 36.9,321.4 437.8,321.4 "/>
<rect x="86.4" y="271.9" class="st4" width="0.7" height="49.5"/>
<polyline class="st5" points="36.9,41.5 36.9,321.4 437.8,321.4 "/>
<rect x="87.2" y="278.1" class="st4" width="0.7" height="43.3"/>
<polyline class="st5" points="36.9,41.5 36.9,321.4 437.8,321.4 "/>
<rect x="87.9" y="277.6" class="st4" width="0.7" height="43.8"/>
<polyline class="st5" points="36.9,41.5 36.9,321.4 437.8,321.4 "/>
<rect x="88.6" y="273.7" class="st4" width="0.7" height="47.7"/>
<polyline class="st5" points="36.9,41.5 36.9,321.4 437.8,321.4 "/>
<rect x="89.3" y="279.2" class="st4" width="0.7" height="42.2"/>
<polyline class="st5" points="36.9,41.5 36.9,321.4 437.8,321.4 "/>
<rect x="90.1" y="276.3" class="st4" width="0.7" height="45.1"/>
<polyline class="st5" points="36.9,41.5 36.9,321.4 437.8,321.4 "/>
<rect x="90.8" y="283.1" class="st4" width="0.7" height="38.3"/>
<polyline class="st5" points="36.9,41.5 36.9,321.4 437.8,321.4 "/>
<rect x="91.5" y="287.5" class="st4" width="0.7" height="33.9"/>
<polyline class="st5" points="36.9,41.5 36.9,321.4 437.8,321.4 "/>
<rect x="92.3" y="281.2" class="st4" width="0.7" height="40.2"/>
<polyline class="st5" points="36.9,41.5 36.9,321.4 437.8,321.4 "/>
<rect x="93" y="288.5" class="st4" width="0.7" height="32.9"/>
<polyline class="st5" points="36.9,41.5 36.9,321.4 437.8,321.4 "/>
<rect x="93.7" y="289.8" class="st4" width="0.7" height="31.6"/>
<polyline class="st5" points="36.9,41.5 36.9,321.4 437.8,321.4 "/>
<rect x="94.4" y="291.4" class="st4" width="0.7" height="30.1"/>
<polyline class="st5" points="36.9,41.5 36.9,321.4 437.8,321.4 "/>
<rect x="95.2" y="292.4" class="st4" width="0.7" height="29"/>
<polyline class="st5" points="36.9,41.5 36.9,321.4 437.8,321.4 "/>
<rect x="95.9" y="287.2" class="st4" width="0.7" height="34.2"/>
<polyline class="st5" points="36.9,41.5 36.9,321.4 437.8,321.4 "/>
<rect x="96.6" y="296" class="st4" width="0.7" height="25.4"/>
<polyline class="st5" points="36.9,41.5 36.9,321.4 437.8,321.4 "/>
<rect x="97.4" y="295.5" class="st4" width="0.7" height="25.9"/>
<polyline class="st5" points="36.9,41.5 36.9,321.4 437.8,321.4 "/>
<rect x="98.1" y="290.6" class="st4" width="0.7" height="30.8"/>
<polyline class="st5" points="36.9,41.5 36.9,321.4 437.8,321.4 "/>
<rect x="98.8" y="296.8" class="st4" width="0.7" height="24.6"/>
<polyline class="st5" points="36.9,41.5 36.9,321.4 437.8,321.4 "/>
<rect x="99.5" y="296.5" class="st4" width="0.7" height="24.9"/>
<polyline class="st5" points="36.9,41.5 36.9,321.4 437.8,321.4 "/>
<rect x="100.3" y="302" class="st4" width="0.7" height="19.4"/>
<polyline class="st5" points="36.9,41.5 36.9,321.4 437.8,321.4 "/>
<rect x="101" y="302" class="st4" width="0.7" height="19.4"/>
<polyline class="st5" points="36.9,41.5 36.9,321.4 437.8,321.4 "/>
<rect x="101.7" y="301.2" class="st4" width="0.7" height="20.2"/>
<polyline class="st5" points="36.9,41.5 36.9,321.4 437.8,321.4 "/>
<rect x="102.5" y="300.2" class="st4" width="0.7" height="21.2"/>
<polyline class="st5" points="36.9,41.5 36.9,321.4 437.8,321.4 "/>
<rect x="103.2" y="299.9" class="st4" width="0.7" height="21.5"/>
<polyline class="st5" points="36.9,41.5 36.9,321.4 437.8,321.4 "/>
<rect x="103.9" y="299.6" class="st4" width="0.7" height="21.8"/>
<polyline class="st5" points="36.9,41.5 36.9,321.4 437.8,321.4 "/>
<rect x="104.7" y="304.3" class="st4" width="0.7" height="17.1"/>
<polyline class="st5" points="36.9,41.5 36.9,321.4 437.8,321.4 "/>
<rect x="105.4" y="306.4" class="st4" width="0.7" height="15"/>
<polyline class="st5" points="36.9,41.5 36.9,321.4 437.8,321.4 "/>
<rect x="106.1" y="305.6" class="st4" width="0.7" height="15.8"/>
<polyline class="st5" points="36.9,41.5 36.9,321.4 437.8,321.4 "/>
<rect x="106.8" y="306.1" class="st4" width="0.7" height="15.3"/>
<polyline class="st5" points="36.9,41.5 36.9,321.4 437.8,321.4 "/>
<rect x="107.6" y="307.2" class="st4" width="0.7" height="14.3"/>
<polyline class="st5" points="36.9,41.5 36.9,321.4 437.8,321.4 "/>
<rect x="108.3" y="305.6" class="st4" width="0.7" height="15.8"/>
<polyline class="st5" points="36.9,41.5 36.9,321.4 437.8,321.4 "/>
<rect x="109" y="308.7" class="st4" width="0.7" height="12.7"/>
<polyline class="st5" points="36.9,41.5 36.9,321.4 437.8,321.4 "/>
<rect x="109.8" y="305.9" class="st4" width="0.7" height="15.5"/>
<polyline class="st5" points="36.9,41.5 36.9,321.4 437.8,321.4 "/>
<rect x="110.5" y="309.2" class="st4" width="0.7" height="12.2"/>
<polyline class="st5" points="36.9,41.5 36.9,321.4 437.8,321.4 "/>
<rect x="111.2" y="309.7" class="st4" width="0.7" height="11.7"/>
<polyline class="st5" points="36.9,41.5 36.9,321.4 437.8,321.4 "/>
<rect x="111.9" y="310.3" class="st4" width="0.7" height="11.1"/>
<polyline class="st5" points="36.9,41.5 36.9,321.4 437.8,321.4 "/>
<rect x="112.7" y="307.9" class="st4" width="0.7" height="13.5"/>
<polyline class="st5" points="36.9,41.5 36.9,321.4 437.8,321.4 "/>
<rect x="113.4" y="310" class="st4" width="0.7" height="11.4"/>
<polyline class="st5" points="36.9,41.5 36.9,321.4 437.8,321.4 "/>
<rect x="114.1" y="311.3" class="st4" width="0.7" height="10.1"/>
<polyline class="st5" points="36.9,41.5 36.9,321.4 437.8,321.4 "/>
<rect x="114.9" y="311.8" class="st4" width="0.7" height="9.6"/>
<polyline class="st5" points="36.9,41.5 36.9,321.4 437.8,321.4 "/>
<rect x="115.6" y="312.9" class="st4" width="0.7" height="8.6"/>
<polyline class="st5" points="36.9,41.5 36.9,321.4 437.8,321.4 "/>
<rect x="116.3" y="311.8" class="st4" width="0.7" height="9.6"/>
<polyline class="st5" points="36.9,41.5 36.9,321.4 437.8,321.4 "/>
<rect x="117" y="310.8" class="st4" width="0.7" height="10.6"/>
<polyline class="st5" points="36.9,41.5 36.9,321.4 437.8,321.4 "/>
<rect x="117.8" y="311.6" class="st4" width="0.7" height="9.8"/>
<polyline class="st5" points="36.9,41.5 36.9,321.4 437.8,321.4 "/>
<rect x="118.5" y="310.3" class="st4" width="0.7" height="11.1"/>
<polyline class="st5" points="36.9,41.5 36.9,321.4 437.8,321.4 "/>
<rect x="119.2" y="312.3" class="st4" width="0.7" height="9.1"/>
<polyline class="st5" points="36.9,41.5 36.9,321.4 437.8,321.4 "/>
<rect x="120" y="312.3" class="st4" width="0.7" height="9.1"/>
<polyline class="st5" points="36.9,41.5 36.9,321.4 437.8,321.4 "/>
<rect x="120.7" y="312.6" class="st4" width="0.7" height="8.8"/>
<polyline class="st5" points="36.9,41.5 36.9,321.4 437.8,321.4 "/>
<rect x="121.4" y="314.2" class="st4" width="0.7" height="7.3"/>
<polyline class="st5" points="36.9,41.5 36.9,321.4 437.8,321.4 "/>
<rect x="122.1" y="314.2" class="st4" width="0.7" height="7.3"/>
<polyline class="st5" points="36.9,41.5 36.9,321.4 437.8,321.4 "/>
<rect x="122.9" y="315.2" class="st4" width="0.7" height="6.2"/>
<polyline class="st5" points="36.9,41.5 36.9,321.4 437.8,321.4 "/>
<rect x="123.6" y="314.4" class="st4" width="0.7" height="7"/>
<polyline class="st5" points="36.9,41.5 36.9,321.4 437.8,321.4 "/>
<rect x="124.3" y="317.3" class="st4" width="0.7" height="4.1"/>
<polyline class="st5" points="36.9,41.5 36.9,321.4 437.8,321.4 "/>
<rect x="125.1" y="317.3" class="st4" width="0.7" height="4.1"/>
<polyline class="st5" points="36.9,41.5 36.9,321.4 437.8,321.4 "/>
<rect x="125.8" y="316.7" class="st4" width="0.7" height="4.7"/>
<polyline class="st5" points="36.9,41.5 36.9,321.4 437.8,321.4 "/>
<rect x="126.5" y="317" class="st4" width="0.7" height="4.4"/>
<polyline class="st5" points="36.9,41.5 36.9,321.4 437.8,321.4 "/>
<rect x="127.2" y="316.7" class="st4" width="0.7" height="4.7"/>
<polyline class="st5" points="36.9,41.5 36.9,321.4 437.8,321.4 "/>
<rect x="128" y="314.9" class="st4" width="0.7" height="6.5"/>
<polyline class="st5" points="36.9,41.5 36.9,321.4 437.8,321.4 "/>
<rect x="128.7" y="315.7" class="st4" width="0.7" height="5.7"/>
<polyline class="st5" points="36.9,41.5 36.9,321.4 437.8,321.4 "/>
<rect x="129.4" y="318.8" class="st4" width="0.7" height="2.6"/>
<polyline class="st5" points="36.9,41.5 36.9,321.4 437.8,321.4 "/>
<rect x="130.2" y="315.4" class="st4" width="0.7" height="6"/>
<polyline class="st5" points="36.9,41.5 36.9,321.4 437.8,321.4 "/>
<rect x="130.9" y="317.8" class="st4" width="0.7" height="3.6"/>
<polyline class="st5" points="36.9,41.5 36.9,321.4 437.8,321.4 "/>
<rect x="131.6" y="317.3" class="st4" width="0.7" height="4.1"/>
<polyline class="st5" points="36.9,41.5 36.9,321.4 437.8,321.4 "/>
<rect x="132.4" y="318.8" class="st4" width="0.7" height="2.6"/>
<polyline class="st5" points="36.9,41.5 36.9,321.4 437.8,321.4 "/>
<rect x="133.1" y="317.5" class="st4" width="0.7" height="3.9"/>
<polyline class="st5" points="36.9,41.5 36.9,321.4 437.8,321.4 "/>
<rect x="133.8" y="316.2" class="st4" width="0.7" height="5.2"/>
<polyline class="st5" points="36.9,41.5 36.9,321.4 437.8,321.4 "/>
<rect x="134.5" y="317.5" class="st4" width="0.7" height="3.9"/>
<polyline class="st5" points="36.9,41.5 36.9,321.4 437.8,321.4 "/>
<rect x="135.3" y="319.3" class="st4" width="0.7" height="2.1"/>
<polyline class="st5" points="36.9,41.5 36.9,321.4 437.8,321.4 "/>
<rect x="136" y="317.5" class="st4" width="0.7" height="3.9"/>
<polyline class="st5" points="36.9,41.5 36.9,321.4 437.8,321.4 "/>
<rect x="136.7" y="318.6" class="st4" width="0.7" height="2.9"/>
<polyline class="st5" points="36.9,41.5 36.9,321.4 437.8,321.4 "/>
<rect x="137.5" y="318.8" class="st4" width="0.7" height="2.6"/>
<polyline class="st5" points="36.9,41.5 36.9,321.4 437.8,321.4 "/>
<rect x="138.2" y="317.8" class="st4" width="0.7" height="3.6"/>
<polyline class="st5" points="36.9,41.5 36.9,321.4 437.8,321.4 "/>
<rect x="138.9" y="317.3" class="st4" width="0.7" height="4.1"/>
<polyline class="st5" points="36.9,41.5 36.9,321.4 437.8,321.4 "/>
<rect x="139.6" y="317.8" class="st4" width="0.7" height="3.6"/>
<polyline class="st5" points="36.9,41.5 36.9,321.4 437.8,321.4 "/>
<rect x="140.4" y="318" class="st4" width="0.7" height="3.4"/>
<polyline class="st5" points="36.9,41.5 36.9,321.4 437.8,321.4 "/>
<rect x="141.1" y="317.8" class="st4" width="0.7" height="3.6"/>
<polyline class="st5" points="36.9,41.5 36.9,321.4 437.8,321.4 "/>
<rect x="141.8" y="320.6" class="st4" width="0.7" height="0.8"/>
<polyline class="st5" points="36.9,41.5 36.9,321.4 437.8,321.4 "/>
<rect x="142.6" y="318" class="st4" width="0.7" height="3.4"/>
<polyline class="st5" points="36.9,41.5 36.9,321.4 437.8,321.4 "/>
<rect x="143.3" y="318.8" class="st4" width="0.7" height="2.6"/>
<polyline class="st5" points="36.9,41.5 36.9,321.4 437.8,321.4 "/>
<rect x="144" y="317.8" class="st4" width="0.7" height="3.6"/>
<polyline class="st5" points="36.9,41.5 36.9,321.4 437.8,321.4 "/>
<rect x="144.7" y="319.3" class="st4" width="0.7" height="2.1"/>
<polyline class="st5" points="36.9,41.5 36.9,321.4 437.8,321.4 "/>
<rect x="145.5" y="318.3" class="st4" width="0.7" height="3.1"/>
<polyline class="st5" points="36.9,41.5 36.9,321.4 437.8,321.4 "/>
<rect x="146.2" y="318.8" class="st4" width="0.7" height="2.6"/>
<polyline class="st5" points="36.9,41.5 36.9,321.4 437.8,321.4 "/>
<rect x="146.9" y="318.8" class="st4" width="0.7" height="2.6"/>
<polyline class="st5" points="36.9,41.5 36.9,321.4 437.8,321.4 "/>
<rect x="147.7" y="318.6" class="st4" width="0.7" height="2.9"/>
<polyline class="st5" points="36.9,41.5 36.9,321.4 437.8,321.4 "/>
<rect x="148.4" y="320.1" class="st4" width="0.7" height="1.3"/>
<polyline class="st5" points="36.9,41.5 36.9,321.4 437.8,321.4 "/>
<rect x="149.1" y="320.4" class="st4" width="0.7" height="1"/>
<polyline class="st5" points="36.9,41.5 36.9,321.4 437.8,321.4 "/>
<rect x="149.8" y="319.6" class="st4" width="0.7" height="1.8"/>
<polyline class="st5" points="36.9,41.5 36.9,321.4 437.8,321.4 "/>
<rect x="150.6" y="319.9" class="st4" width="0.7" height="1.6"/>
<polyline class="st5" points="36.9,41.5 36.9,321.4 437.8,321.4 "/>
<rect x="151.3" y="319.1" class="st4" width="0.7" height="2.3"/>
<polyline class="st5" points="36.9,41.5 36.9,321.4 437.8,321.4 "/>
<rect x="152" y="320.9" class="st4" width="0.7" height="0.5"/>
<polyline class="st5" points="36.9,41.5 36.9,321.4 437.8,321.4 "/>
<rect x="152.8" y="320.1" class="st4" width="0.7" height="1.3"/>
<polyline class="st5" points="36.9,41.5 36.9,321.4 437.8,321.4 "/>
<rect x="153.5" y="320.9" class="st4" width="0.7" height="0.5"/>
<polyline class="st5" points="36.9,41.5 36.9,321.4 437.8,321.4 "/>
<rect x="154.2" y="320.6" class="st4" width="0.7" height="0.8"/>
<polyline class="st5" points="36.9,41.5 36.9,321.4 437.8,321.4 "/>
<rect x="154.9" y="321.1" class="st4" width="0.7" height="0.3"/>
<polyline class="st5" points="36.9,41.5 36.9,321.4 437.8,321.4 "/>
<rect x="155.7" y="318.3" class="st4" width="0.7" height="3.1"/>
<polyline class="st5" points="36.9,41.5 36.9,321.4 437.8,321.4 "/>
<rect x="156.4" y="319.1" class="st4" width="0.7" height="2.3"/>
<polyline class="st5" points="36.9,41.5 36.9,321.4 437.8,321.4 "/>
<rect x="157.1" y="320.6" class="st4" width="0.7" height="0.8"/>
<polyline class="st5" points="36.9,41.5 36.9,321.4 437.8,321.4 "/>
<polyline class="st5" points="36.9,41.5 36.9,321.4 437.8,321.4 "/>
<rect x="158.6" y="319.9" class="st4" width="0.7" height="1.6"/>
<polyline class="st5" points="36.9,41.5 36.9,321.4 437.8,321.4 "/>
<rect x="159.3" y="319.9" class="st4" width="0.7" height="1.6"/>
<polyline class="st5" points="36.9,41.5 36.9,321.4 437.8,321.4 "/>
<rect x="160" y="320.1" class="st4" width="0.7" height="1.3"/>
<polyline class="st5" points="36.9,41.5 36.9,321.4 437.8,321.4 "/>
<rect x="160.8" y="321.1" class="st4" width="0.7" height="0.3"/>
<polyline class="st5" points="36.9,41.5 36.9,321.4 437.8,321.4 "/>
<rect x="161.5" y="320.9" class="st4" width="0.7" height="0.5"/>
<polyline class="st5" points="36.9,41.5 36.9,321.4 437.8,321.4 "/>
<rect x="162.2" y="320.4" class="st4" width="0.7" height="1"/>
<polyline class="st5" points="36.9,41.5 36.9,321.4 437.8,321.4 "/>
<rect x="163" y="319.6" class="st4" width="0.7" height="1.8"/>
<polyline class="st5" points="36.9,41.5 36.9,321.4 437.8,321.4 "/>
<rect x="163.7" y="320.9" class="st4" width="0.7" height="0.5"/>
<polyline class="st5" points="36.9,41.5 36.9,321.4 437.8,321.4 "/>
<rect x="164.4" y="320.9" class="st4" width="0.7" height="0.5"/>
<polyline class="st5" points="36.9,41.5 36.9,321.4 437.8,321.4 "/>
<rect x="165.2" y="319.9" class="st4" width="0.7" height="1.6"/>
<polyline class="st5" points="36.9,41.5 36.9,321.4 437.8,321.4 "/>
<rect x="165.9" y="319.6" class="st4" width="0.7" height="1.8"/>
<polyline class="st5" points="36.9,41.5 36.9,321.4 437.8,321.4 "/>
<rect x="166.6" y="320.4" class="st4" width="0.7" height="1"/>
<polyline class="st5" points="36.9,41.5 36.9,321.4 437.8,321.4 "/>
<rect x="167.3" y="320.1" class="st4" width="0.7" height="1.3"/>
<polyline class="st5" points="36.9,41.5 36.9,321.4 437.8,321.4 "/>
<rect x="168.1" y="320.6" class="st4" width="0.7" height="0.8"/>
<polyline class="st5" points="36.9,41.5 36.9,321.4 437.8,321.4 "/>
<rect x="168.8" y="321.1" class="st4" width="0.7" height="0.3"/>
<polyline class="st5" points="36.9,41.5 36.9,321.4 437.8,321.4 "/>
<rect x="169.5" y="319.9" class="st4" width="0.7" height="1.6"/>
<polyline class="st5" points="36.9,41.5 36.9,321.4 437.8,321.4 "/>
<rect x="170.3" y="320.4" class="st4" width="0.7" height="1"/>
<polyline class="st5" points="36.9,41.5 36.9,321.4 437.8,321.4 "/>
<rect x="171" y="320.6" class="st4" width="0.7" height="0.8"/>
<polyline class="st5" points="36.9,41.5 36.9,321.4 437.8,321.4 "/>
<rect x="171.7" y="320.9" class="st4" width="0.7" height="0.5"/>
<polyline class="st5" points="36.9,41.5 36.9,321.4 437.8,321.4 "/>
<rect x="172.4" y="320.4" class="st4" width="0.7" height="1"/>
<polyline class="st5" points="36.9,41.5 36.9,321.4 437.8,321.4 "/>
<rect x="173.2" y="320.9" class="st4" width="0.7" height="0.5"/>
<polyline class="st5" points="36.9,41.5 36.9,321.4 437.8,321.4 "/>
<rect x="173.9" y="320.6" class="st4" width="0.7" height="0.8"/>
<polyline class="st5" points="36.9,41.5 36.9,321.4 437.8,321.4 "/>
<rect x="174.6" y="320.9" class="st4" width="0.7" height="0.5"/>
<polyline class="st5" points="36.9,41.5 36.9,321.4 437.8,321.4 "/>
<rect x="175.4" y="321.1" class="st4" width="0.7" height="0.3"/>
<polyline class="st5" points="36.9,41.5 36.9,321.4 437.8,321.4 "/>
<rect x="176.1" y="320.4" class="st4" width="0.7" height="1"/>
<polyline class="st5" points="36.9,41.5 36.9,321.4 437.8,321.4 "/>
<rect x="176.8" y="320.4" class="st4" width="0.7" height="1"/>
<polyline class="st5" points="36.9,41.5 36.9,321.4 437.8,321.4 "/>
<rect x="177.5" y="320.9" class="st4" width="0.7" height="0.5"/>
<polyline class="st5" points="36.9,41.5 36.9,321.4 437.8,321.4 "/>
<polyline class="st5" points="36.9,41.5 36.9,321.4 437.8,321.4 "/>
<rect x="179" y="321.1" class="st4" width="0.7" height="0.3"/>
<polyline class="st5" points="36.9,41.5 36.9,321.4 437.8,321.4 "/>
<rect x="179.7" y="321.1" class="st4" width="0.7" height="0.3"/>
<polyline class="st5" points="36.9,41.5 36.9,321.4 437.8,321.4 "/>
<rect x="180.5" y="320.4" class="st4" width="0.7" height="1"/>
<polyline class="st5" points="36.9,41.5 36.9,321.4 437.8,321.4 "/>
<polyline class="st5" points="36.9,41.5 36.9,321.4 437.8,321.4 "/>
<rect x="181.9" y="320.4" class="st4" width="0.7" height="1"/>
<polyline class="st5" points="36.9,41.5 36.9,321.4 437.8,321.4 "/>
<rect x="182.6" y="320.9" class="st4" width="0.7" height="0.5"/>
<polyline class="st5" points="36.9,41.5 36.9,321.4 437.8,321.4 "/>
<rect x="183.4" y="321.1" class="st4" width="0.7" height="0.3"/>
<polyline class="st5" points="36.9,41.5 36.9,321.4 437.8,321.4 "/>
<rect x="184.1" y="320.6" class="st4" width="0.7" height="0.8"/>
<polyline class="st5" points="36.9,41.5 36.9,321.4 437.8,321.4 "/>
<rect x="184.8" y="320.9" class="st4" width="0.7" height="0.5"/>
<polyline class="st5" points="36.9,41.5 36.9,321.4 437.8,321.4 "/>
<polyline class="st5" points="36.9,41.5 36.9,321.4 437.8,321.4 "/>
<rect x="186.3" y="321.1" class="st4" width="0.7" height="0.3"/>
<polyline class="st5" points="36.9,41.5 36.9,321.4 437.8,321.4 "/>
<rect x="187" y="321.1" class="st4" width="0.7" height="0.3"/>
<polyline class="st5" points="36.9,41.5 36.9,321.4 437.8,321.4 "/>
<polyline class="st5" points="36.9,41.5 36.9,321.4 437.8,321.4 "/>
<polyline class="st5" points="36.9,41.5 36.9,321.4 437.8,321.4 "/>
<rect x="189.2" y="321.1" class="st4" width="0.7" height="0.3"/>
<polyline class="st5" points="36.9,41.5 36.9,321.4 437.8,321.4 "/>
<rect x="189.9" y="320.9" class="st4" width="0.7" height="0.5"/>
<polyline class="st5" points="36.9,41.5 36.9,321.4 437.8,321.4 "/>
<polyline class="st5" points="36.9,41.5 36.9,321.4 437.8,321.4 "/>
<rect x="191.4" y="321.1" class="st4" width="0.7" height="0.3"/>
<polyline class="st5" points="36.9,41.5 36.9,321.4 437.8,321.4 "/>
<rect x="192.1" y="321.1" class="st4" width="0.7" height="0.3"/>
<polyline class="st5" points="36.9,41.5 36.9,321.4 437.8,321.4 "/>
<polyline class="st5" points="36.9,41.5 36.9,321.4 437.8,321.4 "/>
<polyline class="st5" points="36.9,41.5 36.9,321.4 437.8,321.4 "/>
<polyline class="st5" points="36.9,41.5 36.9,321.4 437.8,321.4 "/>
<rect x="195" y="320.9" class="st4" width="0.7" height="0.5"/>
<polyline class="st5" points="36.9,41.5 36.9,321.4 437.8,321.4 "/>
<rect x="195.8" y="320.6" class="st4" width="0.7" height="0.8"/>
<polyline class="st5" points="36.9,41.5 36.9,321.4 437.8,321.4 "/>
<polyline class="st5" points="36.9,41.5 36.9,321.4 437.8,321.4 "/>
<rect x="197.2" y="320.9" class="st4" width="0.7" height="0.5"/>
<polyline class="st5" points="36.9,41.5 36.9,321.4 437.8,321.4 "/>
<polyline class="st5" points="36.9,41.5 36.9,321.4 437.8,321.4 "/>
<rect x="198.7" y="321.1" class="st4" width="0.7" height="0.3"/>
<polyline class="st5" points="36.9,41.5 36.9,321.4 437.8,321.4 "/>
<rect x="199.4" y="321.1" class="st4" width="0.7" height="0.3"/>
<polyline class="st5" points="36.9,41.5 36.9,321.4 437.8,321.4 "/>
<rect x="200.1" y="320.6" class="st4" width="0.7" height="0.8"/>
<polyline class="st5" points="36.9,41.5 36.9,321.4 437.8,321.4 "/>
<rect x="200.9" y="321.1" class="st4" width="0.7" height="0.3"/>
<polyline class="st5" points="36.9,41.5 36.9,321.4 437.8,321.4 "/>
<polyline class="st5" points="36.9,41.5 36.9,321.4 437.8,321.4 "/>
<rect x="202.3" y="320.9" class="st4" width="0.7" height="0.5"/>
<polyline class="st5" points="36.9,41.5 36.9,321.4 437.8,321.4 "/>
<polyline class="st5" points="36.9,41.5 36.9,321.4 437.8,321.4 "/>
<rect x="203.8" y="321.1" class="st4" width="0.7" height="0.3"/>
<polyline class="st5" points="36.9,41.5 36.9,321.4 437.8,321.4 "/>
<polyline class="st5" points="36.9,41.5 36.9,321.4 437.8,321.4 "/>
<polyline class="st5" points="36.9,41.5 36.9,321.4 437.8,321.4 "/>
<rect x="206" y="321.1" class="st4" width="0.7" height="0.3"/>
<polyline class="st5" points="36.9,41.5 36.9,321.4 437.8,321.4 "/>
<polyline class="st5" points="36.9,41.5 36.9,321.4 437.8,321.4 "/>
<polyline class="st5" points="36.9,41.5 36.9,321.4 437.8,321.4 "/>
<polyline class="st5" points="36.9,41.5 36.9,321.4 437.8,321.4 "/>
<rect x="208.9" y="320.9" class="st4" width="0.7" height="0.5"/>
<polyline class="st5" points="36.9,41.5 36.9,321.4 437.8,321.4 "/>
<polyline class="st5" points="36.9,41.5 36.9,321.4 437.8,321.4 "/>
<rect x="210.3" y="321.1" class="st4" width="0.7" height="0.3"/>
<polyline class="st5" points="36.9,41.5 36.9,321.4 437.8,321.4 "/>
<polyline class="st5" points="36.9,41.5 36.9,321.4 437.8,321.4 "/>
<rect x="211.8" y="321.1" class="st4" width="0.7" height="0.3"/>
<polyline class="st5" points="36.9,41.5 36.9,321.4 437.8,321.4 "/>
<polyline class="st5" points="36.9,41.5 36.9,321.4 437.8,321.4 "/>
<polyline class="st5" points="36.9,41.5 36.9,321.4 437.8,321.4 "/>
<polyline class="st5" points="36.9,41.5 36.9,321.4 437.8,321.4 "/>
<rect x="214.7" y="321.1" class="st4" width="0.7" height="0.3"/>
<polyline class="st5" points="36.9,41.5 36.9,321.4 437.8,321.4 "/>
<rect x="215.4" y="321.1" class="st4" width="0.7" height="0.3"/>
<polyline class="st5" points="36.9,41.5 36.9,321.4 437.8,321.4 "/>
<polyline class="st5" points="36.9,41.5 36.9,321.4 437.8,321.4 "/>
<rect x="216.9" y="321.1" class="st4" width="0.7" height="0.3"/>
<polyline class="st5" points="36.9,41.5 36.9,321.4 437.8,321.4 "/>
<polyline class="st5" points="36.9,41.5 36.9,321.4 437.8,321.4 "/>
<polyline class="st5" points="36.9,41.5 36.9,321.4 437.8,321.4 "/>
<rect x="219.1" y="321.1" class="st4" width="0.7" height="0.3"/>
<polyline class="st5" points="36.9,41.5 36.9,321.4 437.8,321.4 "/>
<polyline class="st5" points="36.9,41.5 36.9,321.4 437.8,321.4 "/>
<polyline class="st5" points="36.9,41.5 36.9,321.4 437.8,321.4 "/>
<rect x="221.3" y="321.1" class="st4" width="0.7" height="0.3"/>
<polyline class="st5" points="36.9,41.5 36.9,321.4 437.8,321.4 "/>
<rect x="222" y="321.1" class="st4" width="0.7" height="0.3"/>
<polyline class="st5" points="36.9,41.5 36.9,321.4 437.8,321.4 "/>
<polyline class="st5" points="36.9,41.5 36.9,321.4 437.8,321.4 "/>
<rect x="223.5" y="321.1" class="st4" width="0.7" height="0.3"/>
<polyline class="st5" points="36.9,41.5 36.9,321.4 437.8,321.4 "/>
<polyline class="st5" points="36.9,41.5 36.9,321.4 437.8,321.4 "/>
<rect x="224.9" y="321.1" class="st4" width="0.7" height="0.3"/>
<polyline class="st5" points="36.9,41.5 36.9,321.4 437.8,321.4 "/>
<polyline class="st5" points="36.9,41.5 36.9,321.4 437.8,321.4 "/>
<polyline class="st5" points="36.9,41.5 36.9,321.4 437.8,321.4 "/>
<polyline class="st5" points="36.9,41.5 36.9,321.4 437.8,321.4 "/>
<polyline class="st5" points="36.9,41.5 36.9,321.4 437.8,321.4 "/>
<rect x="228.6" y="321.1" class="st4" width="0.7" height="0.3"/>
<polyline class="st5" points="36.9,41.5 36.9,321.4 437.8,321.4 "/>
<polyline class="st5" points="36.9,41.5 36.9,321.4 437.8,321.4 "/>
<polyline class="st5" points="36.9,41.5 36.9,321.4 437.8,321.4 "/>
<polyline class="st5" points="36.9,41.5 36.9,321.4 437.8,321.4 "/>
<polyline class="st5" points="36.9,41.5 36.9,321.4 437.8,321.4 "/>
<rect x="232.2" y="321.1" class="st4" width="0.7" height="0.3"/>
<polyline class="st5" points="36.9,41.5 36.9,321.4 437.8,321.4 "/>
<polyline class="st5" points="36.9,41.5 36.9,321.4 437.8,321.4 "/>
<polyline class="st5" points="36.9,41.5 36.9,321.4 437.8,321.4 "/>
<polyline class="st5" points="36.9,41.5 36.9,321.4 437.8,321.4 "/>
<polyline class="st5" points="36.9,41.5 36.9,321.4 437.8,321.4 "/>
<rect x="235.9" y="321.1" class="st4" width="0.7" height="0.3"/>
<polyline class="st5" points="36.9,41.5 36.9,321.4 437.8,321.4 "/>
<polyline class="st5" points="36.9,41.5 36.9,321.4 437.8,321.4 "/>
<rect x="237.3" y="321.1" class="st4" width="0.7" height="0.3"/>
<polyline class="st5" points="36.9,41.5 36.9,321.4 437.8,321.4 "/>
<polyline class="st5" points="36.9,41.5 36.9,321.4 437.8,321.4 "/>
<polyline class="st5" points="36.9,41.5 36.9,321.4 437.8,321.4 "/>
<polyline class="st5" points="36.9,41.5 36.9,321.4 437.8,321.4 "/>
<polyline class="st5" points="36.9,41.5 36.9,321.4 437.8,321.4 "/>
<polyline class="st5" points="36.9,41.5 36.9,321.4 437.8,321.4 "/>
<polyline class="st5" points="36.9,41.5 36.9,321.4 437.8,321.4 "/>
<polyline class="st5" points="36.9,41.5 36.9,321.4 437.8,321.4 "/>
<polyline class="st5" points="36.9,41.5 36.9,321.4 437.8,321.4 "/>
<polyline class="st5" points="36.9,41.5 36.9,321.4 437.8,321.4 "/>
<polyline class="st5" points="36.9,41.5 36.9,321.4 437.8,321.4 "/>
<rect x="245.3" y="321.1" class="st4" width="0.7" height="0.3"/>
<polyline class="st5" points="36.9,41.5 36.9,321.4 437.8,321.4 "/>
<polyline class="st5" points="36.9,41.5 36.9,321.4 437.8,321.4 "/>
<polyline class="st5" points="36.9,41.5 36.9,321.4 437.8,321.4 "/>
<polyline class="st5" points="36.9,41.5 36.9,321.4 437.8,321.4 "/>
<polyline class="st5" points="36.9,41.5 36.9,321.4 437.8,321.4 "/>
<polyline class="st5" points="36.9,41.5 36.9,321.4 437.8,321.4 "/>
<polyline class="st5" points="36.9,41.5 36.9,321.4 437.8,321.4 "/>
<polyline class="st5" points="36.9,41.5 36.9,321.4 437.8,321.4 "/>
<rect x="251.2" y="321.1" class="st4" width="0.7" height="0.3"/>
<polyline class="st5" points="36.9,41.5 36.9,321.4 437.8,321.4 "/>
<polyline class="st5" points="36.9,41.5 36.9,321.4 437.8,321.4 "/>
<polyline class="st5" points="36.9,41.5 36.9,321.4 437.8,321.4 "/>
<polyline class="st5" points="36.9,41.5 36.9,321.4 437.8,321.4 "/>
<polyline class="st5" points="36.9,41.5 36.9,321.4 437.8,321.4 "/>
<polyline class="st5" points="36.9,41.5 36.9,321.4 437.8,321.4 "/>
<polyline class="st5" points="36.9,41.5 36.9,321.4 437.8,321.4 "/>
<polyline class="st5" points="36.9,41.5 36.9,321.4 437.8,321.4 "/>
<polyline class="st5" points="36.9,41.5 36.9,321.4 437.8,321.4 "/>
<polyline class="st5" points="36.9,41.5 36.9,321.4 437.8,321.4 "/>
<polyline class="st5" points="36.9,41.5 36.9,321.4 437.8,321.4 "/>
<polyline class="st5" points="36.9,41.5 36.9,321.4 437.8,321.4 "/>
<polyline class="st5" points="36.9,41.5 36.9,321.4 437.8,321.4 "/>
<polyline class="st5" points="36.9,41.5 36.9,321.4 437.8,321.4 "/>
<polyline class="st5" points="36.9,41.5 36.9,321.4 437.8,321.4 "/>
<polyline class="st5" points="36.9,41.5 36.9,321.4 437.8,321.4 "/>
<rect x="262.8" y="321.1" class="st4" width="0.7" height="0.3"/>
<polyline class="st5" points="36.9,41.5 36.9,321.4 437.8,321.4 "/>
<polyline class="st5" points="36.9,41.5 36.9,321.4 437.8,321.4 "/>
<rect x="264.3" y="321.1" class="st4" width="0.7" height="0.3"/>
<polyline class="st5" points="36.9,41.5 36.9,321.4 437.8,321.4 "/>
<polyline class="st5" points="36.9,41.5 36.9,321.4 437.8,321.4 "/>
<polyline class="st5" points="36.9,41.5 36.9,321.4 437.8,321.4 "/>
<polyline class="st5" points="36.9,41.5 36.9,321.4 437.8,321.4 "/>
<polyline class="st5" points="36.9,41.5 36.9,321.4 437.8,321.4 "/>
<polyline class="st5" points="36.9,41.5 36.9,321.4 437.8,321.4 "/>
<polyline class="st5" points="36.9,41.5 36.9,321.4 437.8,321.4 "/>
<polyline class="st5" points="36.9,41.5 36.9,321.4 437.8,321.4 "/>
<polyline class="st5" points="36.9,41.5 36.9,321.4 437.8,321.4 "/>
<polyline class="st5" points="36.9,41.5 36.9,321.4 437.8,321.4 "/>
<rect x="271.6" y="321.1" class="st4" width="0.7" height="0.3"/>
<polyline class="st5" points="36.9,41.5 36.9,321.4 437.8,321.4 "/>
<polyline class="st5" points="36.9,41.5 36.9,321.4 437.8,321.4 "/>
<polyline class="st5" points="36.9,41.5 36.9,321.4 437.8,321.4 "/>
<polyline class="st5" points="36.9,41.5 36.9,321.4 437.8,321.4 "/>
<polyline class="st5" points="36.9,41.5 36.9,321.4 437.8,321.4 "/>
<polyline class="st5" points="36.9,41.5 36.9,321.4 437.8,321.4 "/>
<polyline class="st5" points="36.9,41.5 36.9,321.4 437.8,321.4 "/>
<polyline class="st5" points="36.9,41.5 36.9,321.4 437.8,321.4 "/>
<polyline class="st5" points="36.9,41.5 36.9,321.4 437.8,321.4 "/>
<polyline class="st5" points="36.9,41.5 36.9,321.4 437.8,321.4 "/>
<polyline class="st5" points="36.9,41.5 36.9,321.4 437.8,321.4 "/>
<polyline class="st5" points="36.9,41.5 36.9,321.4 437.8,321.4 "/>
<polyline class="st5" points="36.9,41.5 36.9,321.4 437.8,321.4 "/>
<polyline class="st5" points="36.9,41.5 36.9,321.4 437.8,321.4 "/>
<polyline class="st5" points="36.9,41.5 36.9,321.4 437.8,321.4 "/>
<polyline class="st5" points="36.9,41.5 36.9,321.4 437.8,321.4 "/>
<rect x="283.2" y="321.1" class="st4" width="0.7" height="0.3"/>
<polyline class="st5" points="36.9,41.5 36.9,321.4 437.8,321.4 "/>
<rect x="284" y="321.1" class="st4" width="0.7" height="0.3"/>
<polyline class="st5" points="36.9,41.5 36.9,321.4 437.8,321.4 "/>
<rect x="284.7" y="321.1" class="st4" width="0.7" height="0.3"/>
<polyline class="st5" points="36.9,41.5 36.9,321.4 437.8,321.4 "/>
<polyline class="st5" points="36.9,41.5 36.9,321.4 437.8,321.4 "/>
<polyline class="st5" points="36.9,41.5 36.9,321.4 437.8,321.4 "/>
<polyline class="st5" points="36.9,41.5 36.9,321.4 437.8,321.4 "/>
<polyline class="st5" points="36.9,41.5 36.9,321.4 437.8,321.4 "/>
<polyline class="st5" points="36.9,41.5 36.9,321.4 437.8,321.4 "/>
<polyline class="st5" points="36.9,41.5 36.9,321.4 437.8,321.4 "/>
<polyline class="st5" points="36.9,41.5 36.9,321.4 437.8,321.4 "/>
<polyline class="st5" points="36.9,41.5 36.9,321.4 437.8,321.4 "/>
<polyline class="st5" points="36.9,41.5 36.9,321.4 437.8,321.4 "/>
<polyline class="st5" points="36.9,41.5 36.9,321.4 437.8,321.4 "/>
<polyline class="st5" points="36.9,41.5 36.9,321.4 437.8,321.4 "/>
<polyline class="st5" points="36.9,41.5 36.9,321.4 437.8,321.4 "/>
<polyline class="st5" points="36.9,41.5 36.9,321.4 437.8,321.4 "/>
<polyline class="st5" points="36.9,41.5 36.9,321.4 437.8,321.4 "/>
<polyline class="st5" points="36.9,41.5 36.9,321.4 437.8,321.4 "/>
<polyline class="st5" points="36.9,41.5 36.9,321.4 437.8,321.4 "/>
<polyline class="st5" points="36.9,41.5 36.9,321.4 437.8,321.4 "/>
<polyline class="st5" points="36.9,41.5 36.9,321.4 437.8,321.4 "/>
<polyline class="st5" points="36.9,41.5 36.9,321.4 437.8,321.4 "/>
<polyline class="st5" points="36.9,41.5 36.9,321.4 437.8,321.4 "/>
<polyline class="st5" points="36.9,41.5 36.9,321.4 437.8,321.4 "/>
<polyline class="st5" points="36.9,41.5 36.9,321.4 437.8,321.4 "/>
<polyline class="st5" points="36.9,41.5 36.9,321.4 437.8,321.4 "/>
<polyline class="st5" points="36.9,41.5 36.9,321.4 437.8,321.4 "/>
<polyline class="st5" points="36.9,41.5 36.9,321.4 437.8,321.4 "/>
<polyline class="st5" points="36.9,41.5 36.9,321.4 437.8,321.4 "/>
<polyline class="st5" points="36.9,41.5 36.9,321.4 437.8,321.4 "/>
<polyline class="st5" points="36.9,41.5 36.9,321.4 437.8,321.4 "/>
<polyline class="st5" points="36.9,41.5 36.9,321.4 437.8,321.4 "/>
<polyline class="st5" points="36.9,41.5 36.9,321.4 437.8,321.4 "/>
<polyline class="st5" points="36.9,41.5 36.9,321.4 437.8,321.4 "/>
<polyline class="st5" points="36.9,41.5 36.9,321.4 437.8,321.4 "/>
<polyline class="st5" points="36.9,41.5 36.9,321.4 437.8,321.4 "/>
<polyline class="st5" points="36.9,41.5 36.9,321.4 437.8,321.4 "/>
<polyline class="st5" points="36.9,41.5 36.9,321.4 437.8,321.4 "/>
<polyline class="st5" points="36.9,41.5 36.9,321.4 437.8,321.4 "/>
<polyline class="st5" points="36.9,41.5 36.9,321.4 437.8,321.4 "/>
<polyline class="st5" points="36.9,41.5 36.9,321.4 437.8,321.4 "/>
<polyline class="st5" points="36.9,41.5 36.9,321.4 437.8,321.4 "/>
<polyline class="st5" points="36.9,41.5 36.9,321.4 437.8,321.4 "/>
<polyline class="st5" points="36.9,41.5 36.9,321.4 437.8,321.4 "/>
<polyline class="st5" points="36.9,41.5 36.9,321.4 437.8,321.4 "/>
<polyline class="st5" points="36.9,41.5 36.9,321.4 437.8,321.4 "/>
<polyline class="st5" points="36.9,41.5 36.9,321.4 437.8,321.4 "/>
<polyline class="st5" points="36.9,41.5 36.9,321.4 437.8,321.4 "/>
<polyline class="st5" points="36.9,41.5 36.9,321.4 437.8,321.4 "/>
<polyline class="st5" points="36.9,41.5 36.9,321.4 437.8,321.4 "/>
<polyline class="st5" points="36.9,41.5 36.9,321.4 437.8,321.4 "/>
<polyline class="st5" points="36.9,41.5 36.9,321.4 437.8,321.4 "/>
<polyline class="st5" points="36.9,41.5 36.9,321.4 437.8,321.4 "/>
<polyline class="st5" points="36.9,41.5 36.9,321.4 437.8,321.4 "/>
<polyline class="st5" points="36.9,41.5 36.9,321.4 437.8,321.4 "/>
<polyline class="st5" points="36.9,41.5 36.9,321.4 437.8,321.4 "/>
<polyline class="st5" points="36.9,41.5 36.9,321.4 437.8,321.4 "/>
<polyline class="st5" points="36.9,41.5 36.9,321.4 437.8,321.4 "/>
<polyline class="st5" points="36.9,41.5 36.9,321.4 437.8,321.4 "/>
<polyline class="st5" points="36.9,41.5 36.9,321.4 437.8,321.4 "/>
<polyline class="st5" points="36.9,41.5 36.9,321.4 437.8,321.4 "/>
<polyline class="st5" points="36.9,41.5 36.9,321.4 437.8,321.4 "/>
<polyline class="st5" points="36.9,41.5 36.9,321.4 437.8,321.4 "/>
<polyline class="st5" points="36.9,41.5 36.9,321.4 437.8,321.4 "/>
<polyline class="st5" points="36.9,41.5 36.9,321.4 437.8,321.4 "/>
<polyline class="st5" points="36.9,41.5 36.9,321.4 437.8,321.4 "/>
<polyline class="st5" points="36.9,41.5 36.9,321.4 437.8,321.4 "/>
<polyline class="st5" points="36.9,41.5 36.9,321.4 437.8,321.4 "/>
<polyline class="st5" points="36.9,41.5 36.9,321.4 437.8,321.4 "/>
<polyline class="st5" points="36.9,41.5 36.9,321.4 437.8,321.4 "/>
<polyline class="st5" points="36.9,41.5 36.9,321.4 437.8,321.4 "/>
<polyline class="st5" points="36.9,41.5 36.9,321.4 437.8,321.4 "/>
<polyline class="st5" points="36.9,41.5 36.9,321.4 437.8,321.4 "/>
<polyline class="st5" points="36.9,41.5 36.9,321.4 437.8,321.4 "/>
<polyline class="st5" points="36.9,41.5 36.9,321.4 437.8,321.4 "/>
<polyline class="st5" points="36.9,41.5 36.9,321.4 437.8,321.4 "/>
<polyline class="st5" points="36.9,41.5 36.9,321.4 437.8,321.4 "/>
<polyline class="st5" points="36.9,41.5 36.9,321.4 437.8,321.4 "/>
<polyline class="st5" points="36.9,41.5 36.9,321.4 437.8,321.4 "/>
<polyline class="st5" points="36.9,41.5 36.9,321.4 437.8,321.4 "/>
<polyline class="st5" points="36.9,41.5 36.9,321.4 437.8,321.4 "/>
<polyline class="st5" points="36.9,41.5 36.9,321.4 437.8,321.4 "/>
<polyline class="st5" points="36.9,41.5 36.9,321.4 437.8,321.4 "/>
<polyline class="st5" points="36.9,41.5 36.9,321.4 437.8,321.4 "/>
<polyline class="st5" points="36.9,41.5 36.9,321.4 437.8,321.4 "/>
<polyline class="st5" points="36.9,41.5 36.9,321.4 437.8,321.4 "/>
<polyline class="st5" points="36.9,41.5 36.9,321.4 437.8,321.4 "/>
<polyline class="st5" points="36.9,41.5 36.9,321.4 437.8,321.4 "/>
<polyline class="st5" points="36.9,41.5 36.9,321.4 437.8,321.4 "/>
<polyline class="st5" points="36.9,41.5 36.9,321.4 437.8,321.4 "/>
<polyline class="st5" points="36.9,41.5 36.9,321.4 437.8,321.4 "/>
<polyline class="st5" points="36.9,41.5 36.9,321.4 437.8,321.4 "/>
<polyline class="st5" points="36.9,41.5 36.9,321.4 437.8,321.4 "/>
<polyline class="st5" points="36.9,41.5 36.9,321.4 437.8,321.4 "/>
<polyline class="st5" points="36.9,41.5 36.9,321.4 437.8,321.4 "/>
<polyline class="st5" points="36.9,41.5 36.9,321.4 437.8,321.4 "/>
<polyline class="st5" points="36.9,41.5 36.9,321.4 437.8,321.4 "/>
<polyline class="st5" points="36.9,41.5 36.9,321.4 437.8,321.4 "/>
<polyline class="st5" points="36.9,41.5 36.9,321.4 437.8,321.4 "/>
<polyline class="st5" points="36.9,41.5 36.9,321.4 437.8,321.4 "/>
<polyline class="st5" points="36.9,41.5 36.9,321.4 437.8,321.4 "/>
<polyline class="st5" points="36.9,41.5 36.9,321.4 437.8,321.4 "/>
<polyline class="st5" points="36.9,41.5 36.9,321.4 437.8,321.4 "/>
<polyline class="st5" points="36.9,41.5 36.9,321.4 437.8,321.4 "/>
<polyline class="st5" points="36.9,41.5 36.9,321.4 437.8,321.4 "/>
<polyline class="st5" points="36.9,41.5 36.9,321.4 437.8,321.4 "/>
<polyline class="st5" points="36.9,41.5 36.9,321.4 437.8,321.4 "/>
<polyline class="st5" points="36.9,41.5 36.9,321.4 437.8,321.4 "/>
<polyline class="st5" points="36.9,41.5 36.9,321.4 437.8,321.4 "/>
<polyline class="st5" points="36.9,41.5 36.9,321.4 437.8,321.4 "/>
<polyline class="st5" points="36.9,41.5 36.9,321.4 437.8,321.4 "/>
<polyline class="st5" points="36.9,41.5 36.9,321.4 437.8,321.4 "/>
<polyline class="st5" points="36.9,41.5 36.9,321.4 437.8,321.4 "/>
<polyline class="st5" points="36.9,41.5 36.9,321.4 437.8,321.4 "/>
<polyline class="st5" points="36.9,41.5 36.9,321.4 437.8,321.4 "/>
<polyline class="st5" points="36.9,41.5 36.9,321.4 437.8,321.4 "/>
<polyline class="st5" points="36.9,41.5 36.9,321.4 437.8,321.4 "/>
<polyline class="st5" points="36.9,41.5 36.9,321.4 437.8,321.4 "/>
<polyline class="st5" points="36.9,41.5 36.9,321.4 437.8,321.4 "/>
<polyline class="st5" points="36.9,41.5 36.9,321.4 437.8,321.4 "/>
<polyline class="st5" points="36.9,41.5 36.9,321.4 437.8,321.4 "/>
<polyline class="st5" points="36.9,41.5 36.9,321.4 437.8,321.4 "/>
<polyline class="st5" points="36.9,41.5 36.9,321.4 437.8,321.4 "/>
<polyline class="st5" points="36.9,41.5 36.9,321.4 437.8,321.4 "/>
<polyline class="st5" points="36.9,41.5 36.9,321.4 437.8,321.4 "/>
<polyline class="st5" points="36.9,41.5 36.9,321.4 437.8,321.4 "/>
<polyline class="st5" points="36.9,41.5 36.9,321.4 437.8,321.4 "/>
<polyline class="st5" points="36.9,41.5 36.9,321.4 437.8,321.4 "/>
<polyline class="st5" points="36.9,41.5 36.9,321.4 437.8,321.4 "/>
<polyline class="st5" points="36.9,41.5 36.9,321.4 437.8,321.4 "/>
<polyline class="st5" points="36.9,41.5 36.9,321.4 437.8,321.4 "/>
<polyline class="st5" points="36.9,41.5 36.9,321.4 437.8,321.4 "/>
<polyline class="st5" points="36.9,41.5 36.9,321.4 437.8,321.4 "/>
<polyline class="st5" points="36.9,41.5 36.9,321.4 437.8,321.4 "/>
<polyline class="st5" points="36.9,41.5 36.9,321.4 437.8,321.4 "/>
<polyline class="st5" points="36.9,41.5 36.9,321.4 437.8,321.4 "/>
<polyline class="st5" points="36.9,41.5 36.9,321.4 437.8,321.4 "/>
<polyline class="st5" points="36.9,41.5 36.9,321.4 437.8,321.4 "/>
<polyline class="st5" points="36.9,41.5 36.9,321.4 437.8,321.4 "/>
<polyline class="st5" points="36.9,41.5 36.9,321.4 437.8,321.4 "/>
<polyline class="st5" points="36.9,41.5 36.9,321.4 437.8,321.4 "/>
<polyline class="st5" points="36.9,41.5 36.9,321.4 437.8,321.4 "/>
<polyline class="st5" points="36.9,41.5 36.9,321.4 437.8,321.4 "/>
<polyline class="st5" points="36.9,41.5 36.9,321.4 437.8,321.4 "/>
<polyline class="st5" points="36.9,41.5 36.9,321.4 437.8,321.4 "/>
<polyline class="st5" points="36.9,41.5 36.9,321.4 437.8,321.4 "/>
<polyline class="st5" points="36.9,41.5 36.9,321.4 437.8,321.4 "/>
<polyline class="st5" points="36.9,41.5 36.9,321.4 437.8,321.4 "/>
<polyline class="st5" points="36.9,41.5 36.9,321.4 437.8,321.4 "/>
<polyline class="st5" points="36.9,41.5 36.9,321.4 437.8,321.4 "/>
<polyline class="st5" points="36.9,41.5 36.9,321.4 437.8,321.4 "/>
<polyline class="st5" points="36.9,41.5 36.9,321.4 437.8,321.4 "/>
<polyline class="st5" points="36.9,41.5 36.9,321.4 437.8,321.4 "/>
<polyline class="st5" points="36.9,41.5 36.9,321.4 437.8,321.4 "/>
<polyline class="st5" points="36.9,41.5 36.9,321.4 437.8,321.4 "/>
<polyline class="st5" points="36.9,41.5 36.9,321.4 437.8,321.4 "/>
<polyline class="st5" points="36.9,41.5 36.9,321.4 437.8,321.4 "/>
<polyline class="st5" points="36.9,41.5 36.9,321.4 437.8,321.4 "/>
<polyline class="st5" points="36.9,41.5 36.9,321.4 437.8,321.4 "/>
<polyline class="st5" points="36.9,41.5 36.9,321.4 437.8,321.4 "/>
<polyline class="st5" points="36.9,41.5 36.9,321.4 437.8,321.4 "/>
<polyline class="st5" points="36.9,41.5 36.9,321.4 437.8,321.4 "/>
<polyline class="st5" points="36.9,41.5 36.9,321.4 437.8,321.4 "/>
<polyline class="st5" points="36.9,41.5 36.9,321.4 437.8,321.4 "/>
<polyline class="st5" points="36.9,41.5 36.9,321.4 437.8,321.4 "/>
<polyline class="st5" points="36.9,41.5 36.9,321.4 437.8,321.4 "/>
<polyline class="st5" points="36.9,41.5 36.9,321.4 437.8,321.4 "/>
<polyline class="st5" points="36.9,41.5 36.9,321.4 437.8,321.4 "/>
<polyline class="st5" points="36.9,41.5 36.9,321.4 437.8,321.4 "/>
<polyline class="st5" points="36.9,41.5 36.9,321.4 437.8,321.4 "/>
<polyline class="st5" points="36.9,41.5 36.9,321.4 437.8,321.4 "/>
<polyline class="st5" points="36.9,41.5 36.9,321.4 437.8,321.4 "/>
<polyline class="st5" points="36.9,41.5 36.9,321.4 437.8,321.4 "/>
<polyline class="st5" points="36.9,41.5 36.9,321.4 437.8,321.4 "/>
<polyline class="st5" points="36.9,41.5 36.9,321.4 437.8,321.4 "/>
<polyline class="st5" points="36.9,41.5 36.9,321.4 437.8,321.4 "/>
<polyline class="st5" points="36.9,41.5 36.9,321.4 437.8,321.4 "/>
<polyline class="st5" points="36.9,41.5 36.9,321.4 437.8,321.4 "/>
<polyline class="st5" points="36.9,41.5 36.9,321.4 437.8,321.4 "/>
<polyline class="st5" points="36.9,41.5 36.9,321.4 437.8,321.4 "/>
<polyline class="st5" points="36.9,41.5 36.9,321.4 437.8,321.4 "/>
<polyline class="st5" points="36.9,41.5 36.9,321.4 437.8,321.4 "/>
<polyline class="st5" points="36.9,41.5 36.9,321.4 437.8,321.4 "/>
<polyline class="st5" points="36.9,41.5 36.9,321.4 437.8,321.4 "/>
<polyline class="st5" points="36.9,41.5 36.9,321.4 437.8,321.4 "/>
<polyline class="st5" points="36.9,41.5 36.9,321.4 437.8,321.4 "/>
<rect x="418.8" y="321.1" class="st4" width="0.7" height="0.3"/>
<polyline class="st5" points="36.9,41.5 36.9,321.4 437.8,321.4 "/>
<rect x="55.1" y="306.4" class="st6" width="0.7" height="15"/>
<polyline class="st5" points="36.9,41.5 36.9,321.4 437.8,321.4 "/>
<rect x="55.8" y="305.3" class="st6" width="0.7" height="16.1"/>
<polyline class="st5" points="36.9,41.5 36.9,321.4 437.8,321.4 "/>
<rect x="56.5" y="303" class="st6" width="0.7" height="18.4"/>
<polyline class="st5" points="36.9,41.5 36.9,321.4 437.8,321.4 "/>
<rect x="57.3" y="288.2" class="st6" width="0.7" height="33.2"/>
<polyline class="st5" points="36.9,41.5 36.9,321.4 437.8,321.4 "/>
<rect x="58" y="281.8" class="st6" width="0.7" height="39.6"/>
<polyline class="st5" points="36.9,41.5 36.9,321.4 437.8,321.4 "/>
<rect x="58.7" y="272.7" class="st6" width="0.7" height="48.7"/>
<polyline class="st5" points="36.9,41.5 36.9,321.4 437.8,321.4 "/>
<rect x="59.5" y="252.5" class="st6" width="0.7" height="68.9"/>
<polyline class="st5" points="36.9,41.5 36.9,321.4 437.8,321.4 "/>
<rect x="60.2" y="251.2" class="st6" width="0.7" height="70.2"/>
<polyline class="st5" points="36.9,41.5 36.9,321.4 437.8,321.4 "/>
<rect x="60.9" y="226.1" class="st6" width="0.7" height="95.3"/>
<polyline class="st5" points="36.9,41.5 36.9,321.4 437.8,321.4 "/>
<rect x="61.6" y="224.8" class="st6" width="0.7" height="96.6"/>
<polyline class="st5" points="36.9,41.5 36.9,321.4 437.8,321.4 "/>
<rect x="62.4" y="214.7" class="st6" width="0.7" height="106.7"/>
<polyline class="st5" points="36.9,41.5 36.9,321.4 437.8,321.4 "/>
<rect x="63.1" y="194.7" class="st6" width="0.7" height="126.7"/>
<polyline class="st5" points="36.9,41.5 36.9,321.4 437.8,321.4 "/>
<rect x="63.8" y="188.2" class="st6" width="0.7" height="133.2"/>
<polyline class="st5" points="36.9,41.5 36.9,321.4 437.8,321.4 "/>
<rect x="64.6" y="187.7" class="st6" width="0.7" height="133.7"/>
<polyline class="st5" points="36.9,41.5 36.9,321.4 437.8,321.4 "/>
<rect x="65.3" y="186.7" class="st6" width="0.7" height="134.7"/>
<polyline class="st5" points="36.9,41.5 36.9,321.4 437.8,321.4 "/>
<rect x="66" y="176.1" class="st6" width="0.7" height="145.4"/>
<polyline class="st5" points="36.9,41.5 36.9,321.4 437.8,321.4 "/>
<rect x="66.7" y="189.5" class="st6" width="0.7" height="131.9"/>
<polyline class="st5" points="36.9,41.5 36.9,321.4 437.8,321.4 "/>
<rect x="67.5" y="180.2" class="st6" width="0.7" height="141.2"/>
<polyline class="st5" points="36.9,41.5 36.9,321.4 437.8,321.4 "/>
<rect x="68.2" y="169.3" class="st6" width="0.7" height="152.1"/>
<polyline class="st5" points="36.9,41.5 36.9,321.4 437.8,321.4 "/>
<rect x="68.9" y="177.1" class="st6" width="0.7" height="144.3"/>
<polyline class="st5" points="36.9,41.5 36.9,321.4 437.8,321.4 "/>
<rect x="69.7" y="179.7" class="st6" width="0.7" height="141.7"/>
<polyline class="st5" points="36.9,41.5 36.9,321.4 437.8,321.4 "/>
<rect x="70.4" y="175" class="st6" width="0.7" height="146.4"/>
<polyline class="st5" points="36.9,41.5 36.9,321.4 437.8,321.4 "/>
<rect x="71.1" y="168.5" class="st6" width="0.7" height="152.9"/>
<polyline class="st5" points="36.9,41.5 36.9,321.4 437.8,321.4 "/>
<rect x="71.9" y="172.9" class="st6" width="0.7" height="148.5"/>
<polyline class="st5" points="36.9,41.5 36.9,321.4 437.8,321.4 "/>
<rect x="72.6" y="184.6" class="st6" width="0.7" height="136.8"/>
<polyline class="st5" points="36.9,41.5 36.9,321.4 437.8,321.4 "/>
<rect x="73.3" y="188" class="st6" width="0.7" height="133.4"/>
<polyline class="st5" points="36.9,41.5 36.9,321.4 437.8,321.4 "/>
<rect x="74" y="201.4" class="st6" width="0.7" height="120"/>
<polyline class="st5" points="36.9,41.5 36.9,321.4 437.8,321.4 "/>
<rect x="74.8" y="198.1" class="st6" width="0.7" height="123.3"/>
<polyline class="st5" points="36.9,41.5 36.9,321.4 437.8,321.4 "/>
<rect x="75.5" y="194.2" class="st6" width="0.7" height="127.2"/>
<polyline class="st5" points="36.9,41.5 36.9,321.4 437.8,321.4 "/>
<rect x="76.2" y="198.1" class="st6" width="0.7" height="123.3"/>
<polyline class="st5" points="36.9,41.5 36.9,321.4 437.8,321.4 "/>
<rect x="77" y="207.4" class="st6" width="0.7" height="114"/>
<polyline class="st5" points="36.9,41.5 36.9,321.4 437.8,321.4 "/>
<rect x="77.7" y="221.9" class="st6" width="0.7" height="99.5"/>
<polyline class="st5" points="36.9,41.5 36.9,321.4 437.8,321.4 "/>
<rect x="78.4" y="218" class="st6" width="0.7" height="103.4"/>
<polyline class="st5" points="36.9,41.5 36.9,321.4 437.8,321.4 "/>
<rect x="79.1" y="224" class="st6" width="0.7" height="97.4"/>
<polyline class="st5" points="36.9,41.5 36.9,321.4 437.8,321.4 "/>
<rect x="79.9" y="222.2" class="st6" width="0.7" height="99.2"/>
<polyline class="st5" points="36.9,41.5 36.9,321.4 437.8,321.4 "/>
<rect x="80.6" y="230.7" class="st6" width="0.7" height="90.7"/>
<polyline class="st5" points="36.9,41.5 36.9,321.4 437.8,321.4 "/>
<rect x="81.3" y="230.7" class="st6" width="0.7" height="90.7"/>
<polyline class="st5" points="36.9,41.5 36.9,321.4 437.8,321.4 "/>
<rect x="82.1" y="235.4" class="st6" width="0.7" height="86"/>
<polyline class="st5" points="36.9,41.5 36.9,321.4 437.8,321.4 "/>
<rect x="82.8" y="237.7" class="st6" width="0.7" height="83.7"/>
<polyline class="st5" points="36.9,41.5 36.9,321.4 437.8,321.4 "/>
<rect x="83.5" y="243.9" class="st6" width="0.7" height="77.5"/>
<polyline class="st5" points="36.9,41.5 36.9,321.4 437.8,321.4 "/>
<rect x="84.2" y="244.5" class="st6" width="0.7" height="77"/>
<polyline class="st5" points="36.9,41.5 36.9,321.4 437.8,321.4 "/>
<rect x="85" y="259.2" class="st6" width="0.7" height="62.2"/>
<polyline class="st5" points="36.9,41.5 36.9,321.4 437.8,321.4 "/>
<rect x="85.7" y="259.2" class="st6" width="0.7" height="62.2"/>
<polyline class="st5" points="36.9,41.5 36.9,321.4 437.8,321.4 "/>
<rect x="86.4" y="261.6" class="st6" width="0.7" height="59.9"/>
<polyline class="st5" points="36.9,41.5 36.9,321.4 437.8,321.4 "/>
<rect x="87.2" y="261.8" class="st6" width="0.7" height="59.6"/>
<polyline class="st5" points="36.9,41.5 36.9,321.4 437.8,321.4 "/>
<rect x="87.9" y="261.8" class="st6" width="0.7" height="59.6"/>
<polyline class="st5" points="36.9,41.5 36.9,321.4 437.8,321.4 "/>
<rect x="88.6" y="279.2" class="st6" width="0.7" height="42.2"/>
<polyline class="st5" points="36.9,41.5 36.9,321.4 437.8,321.4 "/>
<rect x="89.3" y="271.9" class="st6" width="0.7" height="49.5"/>
<polyline class="st5" points="36.9,41.5 36.9,321.4 437.8,321.4 "/>
<rect x="90.1" y="280.5" class="st6" width="0.7" height="40.9"/>
<polyline class="st5" points="36.9,41.5 36.9,321.4 437.8,321.4 "/>
<rect x="90.8" y="281.8" class="st6" width="0.7" height="39.6"/>
<polyline class="st5" points="36.9,41.5 36.9,321.4 437.8,321.4 "/>
<rect x="91.5" y="280.5" class="st6" width="0.7" height="40.9"/>
<polyline class="st5" points="36.9,41.5 36.9,321.4 437.8,321.4 "/>
<rect x="92.3" y="284.1" class="st6" width="0.7" height="37.3"/>
<polyline class="st5" points="36.9,41.5 36.9,321.4 437.8,321.4 "/>
<rect x="93" y="288.5" class="st6" width="0.7" height="32.9"/>
<polyline class="st5" points="36.9,41.5 36.9,321.4 437.8,321.4 "/>
<rect x="93.7" y="290.3" class="st6" width="0.7" height="31.1"/>
<polyline class="st5" points="36.9,41.5 36.9,321.4 437.8,321.4 "/>
<rect x="94.4" y="287.7" class="st6" width="0.7" height="33.7"/>
<polyline class="st5" points="36.9,41.5 36.9,321.4 437.8,321.4 "/>
<rect x="95.2" y="295.2" class="st6" width="0.7" height="26.2"/>
<polyline class="st5" points="36.9,41.5 36.9,321.4 437.8,321.4 "/>
<rect x="95.9" y="290.3" class="st6" width="0.7" height="31.1"/>
<polyline class="st5" points="36.9,41.5 36.9,321.4 437.8,321.4 "/>
<rect x="96.6" y="295" class="st6" width="0.7" height="26.4"/>
<polyline class="st5" points="36.9,41.5 36.9,321.4 437.8,321.4 "/>
<rect x="97.4" y="296.3" class="st6" width="0.7" height="25.1"/>
<polyline class="st5" points="36.9,41.5 36.9,321.4 437.8,321.4 "/>
<rect x="98.1" y="297.6" class="st6" width="0.7" height="23.8"/>
<polyline class="st5" points="36.9,41.5 36.9,321.4 437.8,321.4 "/>
<rect x="98.8" y="297.8" class="st6" width="0.7" height="23.6"/>
<polyline class="st5" points="36.9,41.5 36.9,321.4 437.8,321.4 "/>
<rect x="99.5" y="301.5" class="st6" width="0.7" height="20"/>
<polyline class="st5" points="36.9,41.5 36.9,321.4 437.8,321.4 "/>
<rect x="100.3" y="303" class="st6" width="0.7" height="18.4"/>
<polyline class="st5" points="36.9,41.5 36.9,321.4 437.8,321.4 "/>
<rect x="101" y="306.9" class="st6" width="0.7" height="14.5"/>
<polyline class="st5" points="36.9,41.5 36.9,321.4 437.8,321.4 "/>
<rect x="101.7" y="304" class="st6" width="0.7" height="17.4"/>
<polyline class="st5" points="36.9,41.5 36.9,321.4 437.8,321.4 "/>
<rect x="102.5" y="303.3" class="st6" width="0.7" height="18.1"/>
<polyline class="st5" points="36.9,41.5 36.9,321.4 437.8,321.4 "/>
<rect x="103.2" y="306.1" class="st6" width="0.7" height="15.3"/>
<polyline class="st5" points="36.9,41.5 36.9,321.4 437.8,321.4 "/>
<rect x="103.9" y="307.7" class="st6" width="0.7" height="13.7"/>
<polyline class="st5" points="36.9,41.5 36.9,321.4 437.8,321.4 "/>
<rect x="104.7" y="310.5" class="st6" width="0.7" height="10.9"/>
<polyline class="st5" points="36.9,41.5 36.9,321.4 437.8,321.4 "/>
<rect x="105.4" y="313.4" class="st6" width="0.7" height="8"/>
<polyline class="st5" points="36.9,41.5 36.9,321.4 437.8,321.4 "/>
<rect x="106.1" y="310.5" class="st6" width="0.7" height="10.9"/>
<polyline class="st5" points="36.9,41.5 36.9,321.4 437.8,321.4 "/>
<rect x="106.8" y="311" class="st6" width="0.7" height="10.4"/>
<polyline class="st5" points="36.9,41.5 36.9,321.4 437.8,321.4 "/>
<rect x="107.6" y="310.5" class="st6" width="0.7" height="10.9"/>
<polyline class="st5" points="36.9,41.5 36.9,321.4 437.8,321.4 "/>
<rect x="108.3" y="313.1" class="st6" width="0.7" height="8.3"/>
<polyline class="st5" points="36.9,41.5 36.9,321.4 437.8,321.4 "/>
<rect x="109" y="310.5" class="st6" width="0.7" height="10.9"/>
<polyline class="st5" points="36.9,41.5 36.9,321.4 437.8,321.4 "/>
<rect x="109.8" y="311.8" class="st6" width="0.7" height="9.6"/>
<polyline class="st5" points="36.9,41.5 36.9,321.4 437.8,321.4 "/>
<rect x="110.5" y="313.4" class="st6" width="0.7" height="8"/>
<polyline class="st5" points="36.9,41.5 36.9,321.4 437.8,321.4 "/>
<rect x="111.2" y="312.1" class="st6" width="0.7" height="9.3"/>
<polyline class="st5" points="36.9,41.5 36.9,321.4 437.8,321.4 "/>
<rect x="111.9" y="313.1" class="st6" width="0.7" height="8.3"/>
<polyline class="st5" points="36.9,41.5 36.9,321.4 437.8,321.4 "/>
<rect x="112.7" y="313.6" class="st6" width="0.7" height="7.8"/>
<polyline class="st5" points="36.9,41.5 36.9,321.4 437.8,321.4 "/>
<rect x="113.4" y="317" class="st6" width="0.7" height="4.4"/>
<polyline class="st5" points="36.9,41.5 36.9,321.4 437.8,321.4 "/>
<rect x="114.1" y="316" class="st6" width="0.7" height="5.4"/>
<polyline class="st5" points="36.9,41.5 36.9,321.4 437.8,321.4 "/>
<rect x="114.9" y="315.2" class="st6" width="0.7" height="6.2"/>
<polyline class="st5" points="36.9,41.5 36.9,321.4 437.8,321.4 "/>
<rect x="115.6" y="318" class="st6" width="0.7" height="3.4"/>
<polyline class="st5" points="36.9,41.5 36.9,321.4 437.8,321.4 "/>
<rect x="116.3" y="317.3" class="st6" width="0.7" height="4.1"/>
<polyline class="st5" points="36.9,41.5 36.9,321.4 437.8,321.4 "/>
<rect x="117" y="315.7" class="st6" width="0.7" height="5.7"/>
<polyline class="st5" points="36.9,41.5 36.9,321.4 437.8,321.4 "/>
<rect x="117.8" y="317.3" class="st6" width="0.7" height="4.1"/>
<polyline class="st5" points="36.9,41.5 36.9,321.4 437.8,321.4 "/>
<rect x="118.5" y="313.6" class="st6" width="0.7" height="7.8"/>
<polyline class="st5" points="36.9,41.5 36.9,321.4 437.8,321.4 "/>
<rect x="119.2" y="318.6" class="st6" width="0.7" height="2.9"/>
<polyline class="st5" points="36.9,41.5 36.9,321.4 437.8,321.4 "/>
<rect x="120" y="316.7" class="st6" width="0.7" height="4.7"/>
<polyline class="st5" points="36.9,41.5 36.9,321.4 437.8,321.4 "/>
<rect x="120.7" y="316" class="st6" width="0.7" height="5.4"/>
<polyline class="st5" points="36.9,41.5 36.9,321.4 437.8,321.4 "/>
<rect x="121.4" y="318.8" class="st6" width="0.7" height="2.6"/>
<polyline class="st5" points="36.9,41.5 36.9,321.4 437.8,321.4 "/>
<rect x="122.1" y="318" class="st6" width="0.7" height="3.4"/>
<polyline class="st5" points="36.9,41.5 36.9,321.4 437.8,321.4 "/>
<rect x="122.9" y="318.8" class="st6" width="0.7" height="2.6"/>
<polyline class="st5" points="36.9,41.5 36.9,321.4 437.8,321.4 "/>
<rect x="123.6" y="318.8" class="st6" width="0.7" height="2.6"/>
<polyline class="st5" points="36.9,41.5 36.9,321.4 437.8,321.4 "/>
<rect x="124.3" y="317.5" class="st6" width="0.7" height="3.9"/>
<polyline class="st5" points="36.9,41.5 36.9,321.4 437.8,321.4 "/>
<rect x="125.1" y="318.6" class="st6" width="0.7" height="2.9"/>
<polyline class="st5" points="36.9,41.5 36.9,321.4 437.8,321.4 "/>
<rect x="125.8" y="316.7" class="st6" width="0.7" height="4.7"/>
<polyline class="st5" points="36.9,41.5 36.9,321.4 437.8,321.4 "/>
<rect x="126.5" y="317.8" class="st6" width="0.7" height="3.6"/>
<polyline class="st5" points="36.9,41.5 36.9,321.4 437.8,321.4 "/>
<rect x="127.2" y="320.1" class="st6" width="0.7" height="1.3"/>
<polyline class="st5" points="36.9,41.5 36.9,321.4 437.8,321.4 "/>
<rect x="128" y="319.3" class="st6" width="0.7" height="2.1"/>
<polyline class="st5" points="36.9,41.5 36.9,321.4 437.8,321.4 "/>
<rect x="128.7" y="318.8" class="st6" width="0.7" height="2.6"/>
<polyline class="st5" points="36.9,41.5 36.9,321.4 437.8,321.4 "/>
<rect x="129.4" y="318.3" class="st6" width="0.7" height="3.1"/>
<polyline class="st5" points="36.9,41.5 36.9,321.4 437.8,321.4 "/>
<rect x="130.2" y="319.9" class="st6" width="0.7" height="1.6"/>
<polyline class="st5" points="36.9,41.5 36.9,321.4 437.8,321.4 "/>
<rect x="130.9" y="320.6" class="st6" width="0.7" height="0.8"/>
<polyline class="st5" points="36.9,41.5 36.9,321.4 437.8,321.4 "/>
<rect x="131.6" y="319.9" class="st6" width="0.7" height="1.6"/>
<polyline class="st5" points="36.9,41.5 36.9,321.4 437.8,321.4 "/>
<rect x="132.4" y="320.4" class="st6" width="0.7" height="1"/>
<polyline class="st5" points="36.9,41.5 36.9,321.4 437.8,321.4 "/>
<rect x="133.1" y="320.1" class="st6" width="0.7" height="1.3"/>
<polyline class="st5" points="36.9,41.5 36.9,321.4 437.8,321.4 "/>
<rect x="133.8" y="320.4" class="st6" width="0.7" height="1"/>
<polyline class="st5" points="36.9,41.5 36.9,321.4 437.8,321.4 "/>
<rect x="134.5" y="320.1" class="st6" width="0.7" height="1.3"/>
<polyline class="st5" points="36.9,41.5 36.9,321.4 437.8,321.4 "/>
<rect x="135.3" y="319.3" class="st6" width="0.7" height="2.1"/>
<polyline class="st5" points="36.9,41.5 36.9,321.4 437.8,321.4 "/>
<rect x="136" y="320.1" class="st6" width="0.7" height="1.3"/>
<polyline class="st5" points="36.9,41.5 36.9,321.4 437.8,321.4 "/>
<rect x="136.7" y="320.4" class="st6" width="0.7" height="1"/>
<polyline class="st5" points="36.9,41.5 36.9,321.4 437.8,321.4 "/>
<rect x="137.5" y="320.1" class="st6" width="0.7" height="1.3"/>
<polyline class="st5" points="36.9,41.5 36.9,321.4 437.8,321.4 "/>
<rect x="138.2" y="320.6" class="st6" width="0.7" height="0.8"/>
<polyline class="st5" points="36.9,41.5 36.9,321.4 437.8,321.4 "/>
<rect x="138.9" y="320.4" class="st6" width="0.7" height="1"/>
<polyline class="st5" points="36.9,41.5 36.9,321.4 437.8,321.4 "/>
<rect x="139.6" y="319.9" class="st6" width="0.7" height="1.6"/>
<polyline class="st5" points="36.9,41.5 36.9,321.4 437.8,321.4 "/>
<rect x="140.4" y="320.4" class="st6" width="0.7" height="1"/>
<polyline class="st5" points="36.9,41.5 36.9,321.4 437.8,321.4 "/>
<rect x="141.1" y="319.1" class="st6" width="0.7" height="2.3"/>
<polyline class="st5" points="36.9,41.5 36.9,321.4 437.8,321.4 "/>
<rect x="141.8" y="320.1" class="st6" width="0.7" height="1.3"/>
<polyline class="st5" points="36.9,41.5 36.9,321.4 437.8,321.4 "/>
<rect x="142.6" y="320.4" class="st6" width="0.7" height="1"/>
<polyline class="st5" points="36.9,41.5 36.9,321.4 437.8,321.4 "/>
<rect x="143.3" y="320.6" class="st6" width="0.7" height="0.8"/>
<polyline class="st5" points="36.9,41.5 36.9,321.4 437.8,321.4 "/>
<rect x="144" y="320.6" class="st6" width="0.7" height="0.8"/>
<polyline class="st5" points="36.9,41.5 36.9,321.4 437.8,321.4 "/>
<rect x="144.7" y="320.1" class="st6" width="0.7" height="1.3"/>
<polyline class="st5" points="36.9,41.5 36.9,321.4 437.8,321.4 "/>
<rect x="145.5" y="320.1" class="st6" width="0.7" height="1.3"/>
<polyline class="st5" points="36.9,41.5 36.9,321.4 437.8,321.4 "/>
<rect x="146.2" y="320.4" class="st6" width="0.7" height="1"/>
<polyline class="st5" points="36.9,41.5 36.9,321.4 437.8,321.4 "/>
<rect x="146.9" y="320.9" class="st6" width="0.7" height="0.5"/>
<polyline class="st5" points="36.9,41.5 36.9,321.4 437.8,321.4 "/>
<rect x="147.7" y="321.1" class="st6" width="0.7" height="0.3"/>
<polyline class="st5" points="36.9,41.5 36.9,321.4 437.8,321.4 "/>
<rect x="148.4" y="320.9" class="st6" width="0.7" height="0.5"/>
<polyline class="st5" points="36.9,41.5 36.9,321.4 437.8,321.4 "/>
<rect x="149.1" y="320.9" class="st6" width="0.7" height="0.5"/>
<polyline class="st5" points="36.9,41.5 36.9,321.4 437.8,321.4 "/>
<rect x="149.8" y="320.1" class="st6" width="0.7" height="1.3"/>
<polyline class="st5" points="36.9,41.5 36.9,321.4 437.8,321.4 "/>
<rect x="150.6" y="320.1" class="st6" width="0.7" height="1.3"/>
<polyline class="st5" points="36.9,41.5 36.9,321.4 437.8,321.4 "/>
<rect x="151.3" y="321.1" class="st6" width="0.7" height="0.3"/>
<polyline class="st5" points="36.9,41.5 36.9,321.4 437.8,321.4 "/>
<rect x="152" y="321.1" class="st6" width="0.7" height="0.3"/>
<polyline class="st5" points="36.9,41.5 36.9,321.4 437.8,321.4 "/>
<rect x="152.8" y="321.1" class="st6" width="0.7" height="0.3"/>
<polyline class="st5" points="36.9,41.5 36.9,321.4 437.8,321.4 "/>
<rect x="153.5" y="320.9" class="st6" width="0.7" height="0.5"/>
<polyline class="st5" points="36.9,41.5 36.9,321.4 437.8,321.4 "/>
<rect x="154.2" y="320.4" class="st6" width="0.7" height="1"/>
<polyline class="st5" points="36.9,41.5 36.9,321.4 437.8,321.4 "/>
<rect x="154.9" y="321.1" class="st6" width="0.7" height="0.3"/>
<polyline class="st5" points="36.9,41.5 36.9,321.4 437.8,321.4 "/>
<rect x="155.7" y="321.1" class="st6" width="0.7" height="0.3"/>
<polyline class="st5" points="36.9,41.5 36.9,321.4 437.8,321.4 "/>
<polyline class="st5" points="36.9,41.5 36.9,321.4 437.8,321.4 "/>
<rect x="157.1" y="320.4" class="st6" width="0.7" height="1"/>
<polyline class="st5" points="36.9,41.5 36.9,321.4 437.8,321.4 "/>
<rect x="157.9" y="320.9" class="st6" width="0.7" height="0.5"/>
<polyline class="st5" points="36.9,41.5 36.9,321.4 437.8,321.4 "/>
<rect x="158.6" y="321.1" class="st6" width="0.7" height="0.3"/>
<polyline class="st5" points="36.9,41.5 36.9,321.4 437.8,321.4 "/>
<rect x="159.3" y="320.6" class="st6" width="0.7" height="0.8"/>
<polyline class="st5" points="36.9,41.5 36.9,321.4 437.8,321.4 "/>
<rect x="160" y="320.9" class="st6" width="0.7" height="0.5"/>
<polyline class="st5" points="36.9,41.5 36.9,321.4 437.8,321.4 "/>
<rect x="160.8" y="321.1" class="st6" width="0.7" height="0.3"/>
<polyline class="st5" points="36.9,41.5 36.9,321.4 437.8,321.4 "/>
<rect x="161.5" y="320.9" class="st6" width="0.7" height="0.5"/>
<polyline class="st5" points="36.9,41.5 36.9,321.4 437.8,321.4 "/>
<rect x="162.2" y="321.1" class="st6" width="0.7" height="0.3"/>
<polyline class="st5" points="36.9,41.5 36.9,321.4 437.8,321.4 "/>
<rect x="163" y="320.9" class="st6" width="0.7" height="0.5"/>
<polyline class="st5" points="36.9,41.5 36.9,321.4 437.8,321.4 "/>
<rect x="163.7" y="321.1" class="st6" width="0.7" height="0.3"/>
<polyline class="st5" points="36.9,41.5 36.9,321.4 437.8,321.4 "/>
<rect x="164.4" y="321.1" class="st6" width="0.7" height="0.3"/>
<polyline class="st5" points="36.9,41.5 36.9,321.4 437.8,321.4 "/>
<polyline class="st5" points="36.9,41.5 36.9,321.4 437.8,321.4 "/>
<polyline class="st5" points="36.9,41.5 36.9,321.4 437.8,321.4 "/>
<rect x="166.6" y="321.1" class="st6" width="0.7" height="0.3"/>
<polyline class="st5" points="36.9,41.5 36.9,321.4 437.8,321.4 "/>
<rect x="167.3" y="320.9" class="st6" width="0.7" height="0.5"/>
<polyline class="st5" points="36.9,41.5 36.9,321.4 437.8,321.4 "/>
<rect x="168.1" y="321.1" class="st6" width="0.7" height="0.3"/>
<polyline class="st5" points="36.9,41.5 36.9,321.4 437.8,321.4 "/>
<polyline class="st5" points="36.9,41.5 36.9,321.4 437.8,321.4 "/>
<polyline class="st5" points="36.9,41.5 36.9,321.4 437.8,321.4 "/>
<rect x="170.3" y="321.1" class="st6" width="0.7" height="0.3"/>
<polyline class="st5" points="36.9,41.5 36.9,321.4 437.8,321.4 "/>
<polyline class="st5" points="36.9,41.5 36.9,321.4 437.8,321.4 "/>
<polyline class="st5" points="36.9,41.5 36.9,321.4 437.8,321.4 "/>
<rect x="172.4" y="321.1" class="st6" width="0.7" height="0.3"/>
<polyline class="st5" points="36.9,41.5 36.9,321.4 437.8,321.4 "/>
<rect x="173.2" y="321.1" class="st6" width="0.7" height="0.3"/>
<polyline class="st5" points="36.9,41.5 36.9,321.4 437.8,321.4 "/>
<rect x="173.9" y="320.6" class="st6" width="0.7" height="0.8"/>
<polyline class="st5" points="36.9,41.5 36.9,321.4 437.8,321.4 "/>
<polyline class="st5" points="36.9,41.5 36.9,321.4 437.8,321.4 "/>
<rect x="175.4" y="321.1" class="st6" width="0.7" height="0.3"/>
<polyline class="st5" points="36.9,41.5 36.9,321.4 437.8,321.4 "/>
<rect x="176.1" y="321.1" class="st6" width="0.7" height="0.3"/>
<polyline class="st5" points="36.9,41.5 36.9,321.4 437.8,321.4 "/>
<rect x="176.8" y="320.6" class="st6" width="0.7" height="0.8"/>
<polyline class="st5" points="36.9,41.5 36.9,321.4 437.8,321.4 "/>
<rect x="177.5" y="321.1" class="st6" width="0.7" height="0.3"/>
<polyline class="st5" points="36.9,41.5 36.9,321.4 437.8,321.4 "/>
<polyline class="st5" points="36.9,41.5 36.9,321.4 437.8,321.4 "/>
<rect x="179" y="321.1" class="st6" width="0.7" height="0.3"/>
<polyline class="st5" points="36.9,41.5 36.9,321.4 437.8,321.4 "/>
<polyline class="st5" points="36.9,41.5 36.9,321.4 437.8,321.4 "/>
<rect x="180.5" y="321.1" class="st6" width="0.7" height="0.3"/>
<polyline class="st5" points="36.9,41.5 36.9,321.4 437.8,321.4 "/>
<rect x="181.2" y="321.1" class="st6" width="0.7" height="0.3"/>
<polyline class="st5" points="36.9,41.5 36.9,321.4 437.8,321.4 "/>
<rect x="181.9" y="321.1" class="st6" width="0.7" height="0.3"/>
<polyline class="st5" points="36.9,41.5 36.9,321.4 437.8,321.4 "/>
<polyline class="st5" points="36.9,41.5 36.9,321.4 437.8,321.4 "/>
<rect x="183.4" y="321.1" class="st6" width="0.7" height="0.3"/>
<polyline class="st5" points="36.9,41.5 36.9,321.4 437.8,321.4 "/>
<rect x="184.1" y="320.9" class="st6" width="0.7" height="0.5"/>
<polyline class="st5" points="36.9,41.5 36.9,321.4 437.8,321.4 "/>
<polyline class="st5" points="36.9,41.5 36.9,321.4 437.8,321.4 "/>
<polyline class="st5" points="36.9,41.5 36.9,321.4 437.8,321.4 "/>
<polyline class="st5" points="36.9,41.5 36.9,321.4 437.8,321.4 "/>
<polyline class="st5" points="36.9,41.5 36.9,321.4 437.8,321.4 "/>
<polyline class="st5" points="36.9,41.5 36.9,321.4 437.8,321.4 "/>
<polyline class="st5" points="36.9,41.5 36.9,321.4 437.8,321.4 "/>
<polyline class="st5" points="36.9,41.5 36.9,321.4 437.8,321.4 "/>
<polyline class="st5" points="36.9,41.5 36.9,321.4 437.8,321.4 "/>
<rect x="190.7" y="321.1" class="st6" width="0.7" height="0.3"/>
<polyline class="st5" points="36.9,41.5 36.9,321.4 437.8,321.4 "/>
<polyline class="st5" points="36.9,41.5 36.9,321.4 437.8,321.4 "/>
<polyline class="st5" points="36.9,41.5 36.9,321.4 437.8,321.4 "/>
<polyline class="st5" points="36.9,41.5 36.9,321.4 437.8,321.4 "/>
<polyline class="st5" points="36.9,41.5 36.9,321.4 437.8,321.4 "/>
<polyline class="st5" points="36.9,41.5 36.9,321.4 437.8,321.4 "/>
<polyline class="st5" points="36.9,41.5 36.9,321.4 437.8,321.4 "/>
<polyline class="st5" points="36.9,41.5 36.9,321.4 437.8,321.4 "/>
<rect x="196.5" y="321.1" class="st6" width="0.7" height="0.3"/>
<polyline class="st5" points="36.9,41.5 36.9,321.4 437.8,321.4 "/>
<rect x="197.2" y="321.1" class="st6" width="0.7" height="0.3"/>
<polyline class="st5" points="36.9,41.5 36.9,321.4 437.8,321.4 "/>
<polyline class="st5" points="36.9,41.5 36.9,321.4 437.8,321.4 "/>
<polyline class="st5" points="36.9,41.5 36.9,321.4 437.8,321.4 "/>
<polyline class="st5" points="36.9,41.5 36.9,321.4 437.8,321.4 "/>
<rect x="200.1" y="321.1" class="st6" width="0.7" height="0.3"/>
<polyline class="st5" points="36.9,41.5 36.9,321.4 437.8,321.4 "/>
<polyline class="st5" points="36.9,41.5 36.9,321.4 437.8,321.4 "/>
<polyline class="st5" points="36.9,41.5 36.9,321.4 437.8,321.4 "/>
<polyline class="st5" points="36.9,41.5 36.9,321.4 437.8,321.4 "/>
<polyline class="st5" points="36.9,41.5 36.9,321.4 437.8,321.4 "/>
<polyline class="st5" points="36.9,41.5 36.9,321.4 437.8,321.4 "/>
<polyline class="st5" points="36.9,41.5 36.9,321.4 437.8,321.4 "/>
<polyline class="st5" points="36.9,41.5 36.9,321.4 437.8,321.4 "/>
<polyline class="st5" points="36.9,41.5 36.9,321.4 437.8,321.4 "/>
<polyline class="st5" points="36.9,41.5 36.9,321.4 437.8,321.4 "/>
<polyline class="st5" points="36.9,41.5 36.9,321.4 437.8,321.4 "/>
<rect x="208.2" y="321.1" class="st6" width="0.7" height="0.3"/>
<polyline class="st5" points="36.9,41.5 36.9,321.4 437.8,321.4 "/>
<polyline class="st5" points="36.9,41.5 36.9,321.4 437.8,321.4 "/>
<polyline class="st5" points="36.9,41.5 36.9,321.4 437.8,321.4 "/>
<polyline class="st5" points="36.9,41.5 36.9,321.4 437.8,321.4 "/>
<polyline class="st5" points="36.9,41.5 36.9,321.4 437.8,321.4 "/>
<rect x="211.8" y="321.1" class="st6" width="0.7" height="0.3"/>
<polyline class="st5" points="36.9,41.5 36.9,321.4 437.8,321.4 "/>
<polyline class="st5" points="36.9,41.5 36.9,321.4 437.8,321.4 "/>
<polyline class="st5" points="36.9,41.5 36.9,321.4 437.8,321.4 "/>
<polyline class="st5" points="36.9,41.5 36.9,321.4 437.8,321.4 "/>
<polyline class="st5" points="36.9,41.5 36.9,321.4 437.8,321.4 "/>
<polyline class="st5" points="36.9,41.5 36.9,321.4 437.8,321.4 "/>
<polyline class="st5" points="36.9,41.5 36.9,321.4 437.8,321.4 "/>
<polyline class="st5" points="36.9,41.5 36.9,321.4 437.8,321.4 "/>
<polyline class="st5" points="36.9,41.5 36.9,321.4 437.8,321.4 "/>
<polyline class="st5" points="36.9,41.5 36.9,321.4 437.8,321.4 "/>
<polyline class="st5" points="36.9,41.5 36.9,321.4 437.8,321.4 "/>
<polyline class="st5" points="36.9,41.5 36.9,321.4 437.8,321.4 "/>
<polyline class="st5" points="36.9,41.5 36.9,321.4 437.8,321.4 "/>
<polyline class="st5" points="36.9,41.5 36.9,321.4 437.8,321.4 "/>
<rect x="222" y="321.1" class="st6" width="0.7" height="0.3"/>
<polyline class="st5" points="36.9,41.5 36.9,321.4 437.8,321.4 "/>
<polyline class="st5" points="36.9,41.5 36.9,321.4 437.8,321.4 "/>
<polyline class="st5" points="36.9,41.5 36.9,321.4 437.8,321.4 "/>
<polyline class="st5" points="36.9,41.5 36.9,321.4 437.8,321.4 "/>
<polyline class="st5" points="36.9,41.5 36.9,321.4 437.8,321.4 "/>
<polyline class="st5" points="36.9,41.5 36.9,321.4 437.8,321.4 "/>
<polyline class="st5" points="36.9,41.5 36.9,321.4 437.8,321.4 "/>
<polyline class="st5" points="36.9,41.5 36.9,321.4 437.8,321.4 "/>
<polyline class="st5" points="36.9,41.5 36.9,321.4 437.8,321.4 "/>
<polyline class="st5" points="36.9,41.5 36.9,321.4 437.8,321.4 "/>
<polyline class="st5" points="36.9,41.5 36.9,321.4 437.8,321.4 "/>
<polyline class="st5" points="36.9,41.5 36.9,321.4 437.8,321.4 "/>
<polyline class="st5" points="36.9,41.5 36.9,321.4 437.8,321.4 "/>
<polyline class="st5" points="36.9,41.5 36.9,321.4 437.8,321.4 "/>
<polyline class="st5" points="36.9,41.5 36.9,321.4 437.8,321.4 "/>
<polyline class="st5" points="36.9,41.5 36.9,321.4 437.8,321.4 "/>
<polyline class="st5" points="36.9,41.5 36.9,321.4 437.8,321.4 "/>
<polyline class="st5" points="36.9,41.5 36.9,321.4 437.8,321.4 "/>
<polyline class="st5" points="36.9,41.5 36.9,321.4 437.8,321.4 "/>
<polyline class="st5" points="36.9,41.5 36.9,321.4 437.8,321.4 "/>
<polyline class="st5" points="36.9,41.5 36.9,321.4 437.8,321.4 "/>
<polyline class="st5" points="36.9,41.5 36.9,321.4 437.8,321.4 "/>
<polyline class="st5" points="36.9,41.5 36.9,321.4 437.8,321.4 "/>
<polyline class="st5" points="36.9,41.5 36.9,321.4 437.8,321.4 "/>
<polyline class="st5" points="36.9,41.5 36.9,321.4 437.8,321.4 "/>
<polyline class="st5" points="36.9,41.5 36.9,321.4 437.8,321.4 "/>
<rect x="241" y="321.1" class="st6" width="0.7" height="0.3"/>
<polyline class="st5" points="36.9,41.5 36.9,321.4 437.8,321.4 "/>
<polyline class="st5" points="36.9,41.5 36.9,321.4 437.8,321.4 "/>
<polyline class="st5" points="36.9,41.5 36.9,321.4 437.8,321.4 "/>
<polyline class="st5" points="36.9,41.5 36.9,321.4 437.8,321.4 "/>
<polyline class="st5" points="36.9,41.5 36.9,321.4 437.8,321.4 "/>
<rect x="244.6" y="321.1" class="st6" width="0.7" height="0.3"/>
<polyline class="st5" points="36.9,41.5 36.9,321.4 437.8,321.4 "/>
<polyline class="st5" points="36.9,41.5 36.9,321.4 437.8,321.4 "/>
<polyline class="st5" points="36.9,41.5 36.9,321.4 437.8,321.4 "/>
<polyline class="st5" points="36.9,41.5 36.9,321.4 437.8,321.4 "/>
<rect x="247.5" y="321.1" class="st6" width="0.7" height="0.3"/>
<polyline class="st5" points="36.9,41.5 36.9,321.4 437.8,321.4 "/>
<polyline class="st5" points="36.9,41.5 36.9,321.4 437.8,321.4 "/>
<polyline class="st5" points="36.9,41.5 36.9,321.4 437.8,321.4 "/>
<polyline class="st5" points="36.9,41.5 36.9,321.4 437.8,321.4 "/>
<polyline class="st5" points="36.9,41.5 36.9,321.4 437.8,321.4 "/>
<polyline class="st5" points="36.9,41.5 36.9,321.4 437.8,321.4 "/>
<polyline class="st5" points="36.9,41.5 36.9,321.4 437.8,321.4 "/>
<polyline class="st5" points="36.9,41.5 36.9,321.4 437.8,321.4 "/>
<polyline class="st5" points="36.9,41.5 36.9,321.4 437.8,321.4 "/>
<polyline class="st5" points="36.9,41.5 36.9,321.4 437.8,321.4 "/>
<polyline class="st5" points="36.9,41.5 36.9,321.4 437.8,321.4 "/>
<polyline class="st5" points="36.9,41.5 36.9,321.4 437.8,321.4 "/>
<polyline class="st5" points="36.9,41.5 36.9,321.4 437.8,321.4 "/>
<polyline class="st5" points="36.9,41.5 36.9,321.4 437.8,321.4 "/>
<polyline class="st5" points="36.9,41.5 36.9,321.4 437.8,321.4 "/>
<polyline class="st5" points="36.9,41.5 36.9,321.4 437.8,321.4 "/>
<polyline class="st5" points="36.9,41.5 36.9,321.4 437.8,321.4 "/>
<polyline class="st5" points="36.9,41.5 36.9,321.4 437.8,321.4 "/>
<polyline class="st5" points="36.9,41.5 36.9,321.4 437.8,321.4 "/>
<polyline class="st5" points="36.9,41.5 36.9,321.4 437.8,321.4 "/>
<polyline class="st5" points="36.9,41.5 36.9,321.4 437.8,321.4 "/>
<polyline class="st5" points="36.9,41.5 36.9,321.4 437.8,321.4 "/>
<polyline class="st5" points="36.9,41.5 36.9,321.4 437.8,321.4 "/>
<polyline class="st5" points="36.9,41.5 36.9,321.4 437.8,321.4 "/>
<polyline class="st5" points="36.9,41.5 36.9,321.4 437.8,321.4 "/>
<polyline class="st5" points="36.9,41.5 36.9,321.4 437.8,321.4 "/>
<polyline class="st5" points="36.9,41.5 36.9,321.4 437.8,321.4 "/>
<polyline class="st5" points="36.9,41.5 36.9,321.4 437.8,321.4 "/>
<polyline class="st5" points="36.9,41.5 36.9,321.4 437.8,321.4 "/>
<polyline class="st5" points="36.9,41.5 36.9,321.4 437.8,321.4 "/>
<polyline class="st5" points="36.9,41.5 36.9,321.4 437.8,321.4 "/>
<polyline class="st5" points="36.9,41.5 36.9,321.4 437.8,321.4 "/>
<polyline class="st5" points="36.9,41.5 36.9,321.4 437.8,321.4 "/>
<polyline class="st5" points="36.9,41.5 36.9,321.4 437.8,321.4 "/>
<polyline class="st5" points="36.9,41.5 36.9,321.4 437.8,321.4 "/>
<polyline class="st5" points="36.9,41.5 36.9,321.4 437.8,321.4 "/>
<polyline class="st5" points="36.9,41.5 36.9,321.4 437.8,321.4 "/>
<polyline class="st5" points="36.9,41.5 36.9,321.4 437.8,321.4 "/>
<polyline class="st5" points="36.9,41.5 36.9,321.4 437.8,321.4 "/>
<polyline class="st5" points="36.9,41.5 36.9,321.4 437.8,321.4 "/>
<polyline class="st5" points="36.9,41.5 36.9,321.4 437.8,321.4 "/>
<polyline class="st5" points="36.9,41.5 36.9,321.4 437.8,321.4 "/>
<polyline class="st5" points="36.9,41.5 36.9,321.4 437.8,321.4 "/>
<polyline class="st5" points="36.9,41.5 36.9,321.4 437.8,321.4 "/>
<polyline class="st5" points="36.9,41.5 36.9,321.4 437.8,321.4 "/>
<polyline class="st5" points="36.9,41.5 36.9,321.4 437.8,321.4 "/>
<polyline class="st5" points="36.9,41.5 36.9,321.4 437.8,321.4 "/>
<polyline class="st5" points="36.9,41.5 36.9,321.4 437.8,321.4 "/>
<polyline class="st5" points="36.9,41.5 36.9,321.4 437.8,321.4 "/>
<polyline class="st5" points="36.9,41.5 36.9,321.4 437.8,321.4 "/>
<polyline class="st5" points="36.9,41.5 36.9,321.4 437.8,321.4 "/>
<polyline class="st5" points="36.9,41.5 36.9,321.4 437.8,321.4 "/>
<polyline class="st5" points="36.9,41.5 36.9,321.4 437.8,321.4 "/>
<polyline class="st5" points="36.9,41.5 36.9,321.4 437.8,321.4 "/>
<polyline class="st5" points="36.9,41.5 36.9,321.4 437.8,321.4 "/>
<polyline class="st5" points="36.9,41.5 36.9,321.4 437.8,321.4 "/>
<polyline class="st5" points="36.9,41.5 36.9,321.4 437.8,321.4 "/>
<polyline class="st5" points="36.9,41.5 36.9,321.4 437.8,321.4 "/>
<polyline class="st5" points="36.9,41.5 36.9,321.4 437.8,321.4 "/>
<polyline class="st5" points="36.9,41.5 36.9,321.4 437.8,321.4 "/>
<polyline class="st5" points="36.9,41.5 36.9,321.4 437.8,321.4 "/>
<polyline class="st5" points="36.9,41.5 36.9,321.4 437.8,321.4 "/>
<polyline class="st5" points="36.9,41.5 36.9,321.4 437.8,321.4 "/>
<polyline class="st5" points="36.9,41.5 36.9,321.4 437.8,321.4 "/>
<polyline class="st5" points="36.9,41.5 36.9,321.4 437.8,321.4 "/>
<polyline class="st5" points="36.9,41.5 36.9,321.4 437.8,321.4 "/>
<polyline class="st5" points="36.9,41.5 36.9,321.4 437.8,321.4 "/>
<polyline class="st5" points="36.9,41.5 36.9,321.4 437.8,321.4 "/>
<polyline class="st5" points="36.9,41.5 36.9,321.4 437.8,321.4 "/>
<polyline class="st5" points="36.9,41.5 36.9,321.4 437.8,321.4 "/>
<polyline class="st5" points="36.9,41.5 36.9,321.4 437.8,321.4 "/>
<polyline class="st5" points="36.9,41.5 36.9,321.4 437.8,321.4 "/>
<rect x="300" y="321.1" class="st6" width="0.7" height="0.3"/>
<polyline class="st5" points="36.9,41.5 36.9,321.4 437.8,321.4 "/>
<polyline class="st5" points="36.9,41.5 36.9,321.4 437.8,321.4 "/>
<polyline class="st5" points="36.9,41.5 36.9,321.4 437.8,321.4 "/>
<polyline class="st5" points="36.9,41.5 36.9,321.4 437.8,321.4 "/>
<polyline class="st5" points="36.9,41.5 36.9,321.4 437.8,321.4 "/>
<polyline class="st5" points="36.9,41.5 36.9,321.4 437.8,321.4 "/>
<polyline class="st5" points="36.9,41.5 36.9,321.4 437.8,321.4 "/>
<polyline class="st5" points="36.9,41.5 36.9,321.4 437.8,321.4 "/>
<polyline class="st5" points="36.9,41.5 36.9,321.4 437.8,321.4 "/>
<polyline class="st5" points="36.9,41.5 36.9,321.4 437.8,321.4 "/>
<polyline class="st5" points="36.9,41.5 36.9,321.4 437.8,321.4 "/>
<polyline class="st5" points="36.9,41.5 36.9,321.4 437.8,321.4 "/>
<polyline class="st5" points="36.9,41.5 36.9,321.4 437.8,321.4 "/>
<polyline class="st5" points="36.9,41.5 36.9,321.4 437.8,321.4 "/>
<polyline class="st5" points="36.9,41.5 36.9,321.4 437.8,321.4 "/>
<polyline class="st5" points="36.9,41.5 36.9,321.4 437.8,321.4 "/>
<polyline class="st5" points="36.9,41.5 36.9,321.4 437.8,321.4 "/>
<polyline class="st5" points="36.9,41.5 36.9,321.4 437.8,321.4 "/>
<polyline class="st5" points="36.9,41.5 36.9,321.4 437.8,321.4 "/>
<polyline class="st5" points="36.9,41.5 36.9,321.4 437.8,321.4 "/>
<polyline class="st5" points="36.9,41.5 36.9,321.4 437.8,321.4 "/>
<polyline class="st5" points="36.9,41.5 36.9,321.4 437.8,321.4 "/>
<polyline class="st5" points="36.9,41.5 36.9,321.4 437.8,321.4 "/>
<polyline class="st5" points="36.9,41.5 36.9,321.4 437.8,321.4 "/>
<polyline class="st5" points="36.9,41.5 36.9,321.4 437.8,321.4 "/>
<polyline class="st5" points="36.9,41.5 36.9,321.4 437.8,321.4 "/>
<polyline class="st5" points="36.9,41.5 36.9,321.4 437.8,321.4 "/>
<polyline class="st5" points="36.9,41.5 36.9,321.4 437.8,321.4 "/>
<polyline class="st5" points="36.9,41.5 36.9,321.4 437.8,321.4 "/>
<polyline class="st5" points="36.9,41.5 36.9,321.4 437.8,321.4 "/>
<polyline class="st5" points="36.9,41.5 36.9,321.4 437.8,321.4 "/>
<polyline class="st5" points="36.9,41.5 36.9,321.4 437.8,321.4 "/>
<polyline class="st5" points="36.9,41.5 36.9,321.4 437.8,321.4 "/>
<polyline class="st5" points="36.9,41.5 36.9,321.4 437.8,321.4 "/>
<polyline class="st5" points="36.9,41.5 36.9,321.4 437.8,321.4 "/>
<polyline class="st5" points="36.9,41.5 36.9,321.4 437.8,321.4 "/>
<polyline class="st5" points="36.9,41.5 36.9,321.4 437.8,321.4 "/>
<polyline class="st5" points="36.9,41.5 36.9,321.4 437.8,321.4 "/>
<polyline class="st5" points="36.9,41.5 36.9,321.4 437.8,321.4 "/>
<polyline class="st5" points="36.9,41.5 36.9,321.4 437.8,321.4 "/>
<polyline class="st5" points="36.9,41.5 36.9,321.4 437.8,321.4 "/>
<polyline class="st5" points="36.9,41.5 36.9,321.4 437.8,321.4 "/>
<polyline class="st5" points="36.9,41.5 36.9,321.4 437.8,321.4 "/>
<polyline class="st5" points="36.9,41.5 36.9,321.4 437.8,321.4 "/>
<polyline class="st5" points="36.9,41.5 36.9,321.4 437.8,321.4 "/>
<polyline class="st5" points="36.9,41.5 36.9,321.4 437.8,321.4 "/>
<polyline class="st5" points="36.9,41.5 36.9,321.4 437.8,321.4 "/>
<polyline class="st5" points="36.9,41.5 36.9,321.4 437.8,321.4 "/>
<polyline class="st5" points="36.9,41.5 36.9,321.4 437.8,321.4 "/>
<polyline class="st5" points="36.9,41.5 36.9,321.4 437.8,321.4 "/>
<polyline class="st5" points="36.9,41.5 36.9,321.4 437.8,321.4 "/>
<polyline class="st5" points="36.9,41.5 36.9,321.4 437.8,321.4 "/>
<polyline class="st5" points="36.9,41.5 36.9,321.4 437.8,321.4 "/>
<polyline class="st5" points="36.9,41.5 36.9,321.4 437.8,321.4 "/>
<polyline class="st5" points="36.9,41.5 36.9,321.4 437.8,321.4 "/>
<polyline class="st5" points="36.9,41.5 36.9,321.4 437.8,321.4 "/>
<polyline class="st5" points="36.9,41.5 36.9,321.4 437.8,321.4 "/>
<polyline class="st5" points="36.9,41.5 36.9,321.4 437.8,321.4 "/>
<polyline class="st5" points="36.9,41.5 36.9,321.4 437.8,321.4 "/>
<polyline class="st5" points="36.9,41.5 36.9,321.4 437.8,321.4 "/>
<polyline class="st5" points="36.9,41.5 36.9,321.4 437.8,321.4 "/>
<polyline class="st5" points="36.9,41.5 36.9,321.4 437.8,321.4 "/>
<polyline class="st5" points="36.9,41.5 36.9,321.4 437.8,321.4 "/>
<polyline class="st5" points="36.9,41.5 36.9,321.4 437.8,321.4 "/>
<polyline class="st5" points="36.9,41.5 36.9,321.4 437.8,321.4 "/>
<polyline class="st5" points="36.9,41.5 36.9,321.4 437.8,321.4 "/>
<polyline class="st5" points="36.9,41.5 36.9,321.4 437.8,321.4 "/>
<polyline class="st5" points="36.9,41.5 36.9,321.4 437.8,321.4 "/>
<polyline class="st5" points="36.9,41.5 36.9,321.4 437.8,321.4 "/>
<polyline class="st5" points="36.9,41.5 36.9,321.4 437.8,321.4 "/>
<polyline class="st5" points="36.9,41.5 36.9,321.4 437.8,321.4 "/>
<polyline class="st5" points="36.9,41.5 36.9,321.4 437.8,321.4 "/>
<polyline class="st5" points="36.9,41.5 36.9,321.4 437.8,321.4 "/>
<polyline class="st5" points="36.9,41.5 36.9,321.4 437.8,321.4 "/>
<polyline class="st5" points="36.9,41.5 36.9,321.4 437.8,321.4 "/>
<polyline class="st5" points="36.9,41.5 36.9,321.4 437.8,321.4 "/>
<polyline class="st5" points="36.9,41.5 36.9,321.4 437.8,321.4 "/>
<polyline class="st5" points="36.9,41.5 36.9,321.4 437.8,321.4 "/>
<polyline class="st5" points="36.9,41.5 36.9,321.4 437.8,321.4 "/>
<polyline class="st5" points="36.9,41.5 36.9,321.4 437.8,321.4 "/>
<polyline class="st5" points="36.9,41.5 36.9,321.4 437.8,321.4 "/>
<polyline class="st5" points="36.9,41.5 36.9,321.4 437.8,321.4 "/>
<polyline class="st5" points="36.9,41.5 36.9,321.4 437.8,321.4 "/>
<polyline class="st5" points="36.9,41.5 36.9,321.4 437.8,321.4 "/>
<polyline class="st5" points="36.9,41.5 36.9,321.4 437.8,321.4 "/>
<polyline class="st5" points="36.9,41.5 36.9,321.4 437.8,321.4 "/>
<polyline class="st5" points="36.9,41.5 36.9,321.4 437.8,321.4 "/>
<polyline class="st5" points="36.9,41.5 36.9,321.4 437.8,321.4 "/>
<polyline class="st5" points="36.9,41.5 36.9,321.4 437.8,321.4 "/>
<polyline class="st5" points="36.9,41.5 36.9,321.4 437.8,321.4 "/>
<polyline class="st5" points="36.9,41.5 36.9,321.4 437.8,321.4 "/>
<polyline class="st5" points="36.9,41.5 36.9,321.4 437.8,321.4 "/>
<polyline class="st5" points="36.9,41.5 36.9,321.4 437.8,321.4 "/>
<polyline class="st5" points="36.9,41.5 36.9,321.4 437.8,321.4 "/>
<polyline class="st5" points="36.9,41.5 36.9,321.4 437.8,321.4 "/>
<polyline class="st5" points="36.9,41.5 36.9,321.4 437.8,321.4 "/>
<polyline class="st5" points="36.9,41.5 36.9,321.4 437.8,321.4 "/>
<polyline class="st5" points="36.9,41.5 36.9,321.4 437.8,321.4 "/>
<polyline class="st5" points="36.9,41.5 36.9,321.4 437.8,321.4 "/>
<polyline class="st5" points="36.9,41.5 36.9,321.4 437.8,321.4 "/>
<polyline class="st5" points="36.9,41.5 36.9,321.4 437.8,321.4 "/>
<polyline class="st5" points="36.9,41.5 36.9,321.4 437.8,321.4 "/>
<polyline class="st5" points="36.9,41.5 36.9,321.4 437.8,321.4 "/>
<polyline class="st5" points="36.9,41.5 36.9,321.4 437.8,321.4 "/>
<polyline class="st5" points="36.9,41.5 36.9,321.4 437.8,321.4 "/>
<polyline class="st5" points="36.9,41.5 36.9,321.4 437.8,321.4 "/>
<polyline class="st5" points="36.9,41.5 36.9,321.4 437.8,321.4 "/>
<polyline class="st5" points="36.9,41.5 36.9,321.4 437.8,321.4 "/>
<polyline class="st5" points="36.9,41.5 36.9,321.4 437.8,321.4 "/>
<polyline class="st5" points="36.9,41.5 36.9,321.4 437.8,321.4 "/>
<polyline class="st5" points="36.9,41.5 36.9,321.4 437.8,321.4 "/>
<polyline class="st5" points="36.9,41.5 36.9,321.4 437.8,321.4 "/>
<polyline class="st5" points="36.9,41.5 36.9,321.4 437.8,321.4 "/>
<polyline class="st5" points="36.9,41.5 36.9,321.4 437.8,321.4 "/>
<polyline class="st5" points="36.9,41.5 36.9,321.4 437.8,321.4 "/>
<polyline class="st5" points="36.9,41.5 36.9,321.4 437.8,321.4 "/>
<polyline class="st5" points="36.9,41.5 36.9,321.4 437.8,321.4 "/>
<polyline class="st5" points="36.9,41.5 36.9,321.4 437.8,321.4 "/>
<polyline class="st5" points="36.9,41.5 36.9,321.4 437.8,321.4 "/>
<polyline class="st5" points="36.9,41.5 36.9,321.4 437.8,321.4 "/>
<polyline class="st5" points="36.9,41.5 36.9,321.4 437.8,321.4 "/>
<polyline class="st5" points="36.9,41.5 36.9,321.4 437.8,321.4 "/>
<polyline class="st5" points="36.9,41.5 36.9,321.4 437.8,321.4 "/>
<polyline class="st5" points="36.9,41.5 36.9,321.4 437.8,321.4 "/>
<polyline class="st5" points="36.9,41.5 36.9,321.4 437.8,321.4 "/>
<polyline class="st5" points="36.9,41.5 36.9,321.4 437.8,321.4 "/>
<polyline class="st5" points="36.9,41.5 36.9,321.4 437.8,321.4 "/>
<polyline class="st5" points="36.9,41.5 36.9,321.4 437.8,321.4 "/>
<polyline class="st5" points="36.9,41.5 36.9,321.4 437.8,321.4 "/>
<polyline class="st5" points="36.9,41.5 36.9,321.4 437.8,321.4 "/>
<polyline class="st5" points="36.9,41.5 36.9,321.4 437.8,321.4 "/>
<polyline class="st5" points="36.9,41.5 36.9,321.4 437.8,321.4 "/>
<polyline class="st5" points="36.9,41.5 36.9,321.4 437.8,321.4 "/>
<polyline class="st5" points="36.9,41.5 36.9,321.4 437.8,321.4 "/>
<polyline class="st5" points="36.9,41.5 36.9,321.4 437.8,321.4 "/>
<polyline class="st5" points="36.9,41.5 36.9,321.4 437.8,321.4 "/>
<polyline class="st5" points="36.9,41.5 36.9,321.4 437.8,321.4 "/>
<polyline class="st5" points="36.9,41.5 36.9,321.4 437.8,321.4 "/>
<polyline class="st5" points="36.9,41.5 36.9,321.4 437.8,321.4 "/>
<polyline class="st5" points="36.9,41.5 36.9,321.4 437.8,321.4 "/>
<polyline class="st5" points="36.9,41.5 36.9,321.4 437.8,321.4 "/>
<polyline class="st5" points="36.9,41.5 36.9,321.4 437.8,321.4 "/>
<polyline class="st5" points="36.9,41.5 36.9,321.4 437.8,321.4 "/>
<polyline class="st5" points="36.9,41.5 36.9,321.4 437.8,321.4 "/>
<polyline class="st5" points="36.9,41.5 36.9,321.4 437.8,321.4 "/>
<polyline class="st5" points="36.9,41.5 36.9,321.4 437.8,321.4 "/>
<polyline class="st5" points="36.9,41.5 36.9,321.4 437.8,321.4 "/>
<polyline class="st5" points="36.9,41.5 36.9,321.4 437.8,321.4 "/>
<polyline class="st5" points="36.9,41.5 36.9,321.4 437.8,321.4 "/>
<polyline class="st5" points="36.9,41.5 36.9,321.4 437.8,321.4 "/>
<polyline class="st5" points="36.9,41.5 36.9,321.4 437.8,321.4 "/>
<polyline class="st5" points="36.9,41.5 36.9,321.4 437.8,321.4 "/>
<g>
	<rect x="315.7" y="45.1" class="st4" width="20" height="7"/>
	<text transform="matrix(1 0 0 1 343.666 52.0658)" class="st0 st2 st3">std. of selling price</text>
	<rect x="315.7" y="60" class="st6" width="20" height="7"/>
	<text transform="matrix(1 0 0 1 343.666 67.019)" class="st0 st2 st3">std. of buying price</text>
</g>
</svg>
